<?xml version="1.0" standalone="no"?><!DOCTYPE svg PUBLIC "-//W3C//DTD SVG 1.1//EN" "http://www.w3.org/Graphics/SVG/1.1/DTD/svg11.dtd"><svg t="1639062219035" class="icon" viewBox="0 0 1024 1024" version="1.1" xmlns="http://www.w3.org/2000/svg" p-id="695" xmlns:xlink="http://www.w3.org/1999/xlink" width="200" height="200"><defs><style type="text/css"></style></defs><path d="M573 216.3c-0.4 0.9-3.2 0.7-3.6 1.6-0.4 0.9 1 2.5 0.6 3.4-0.4 0.9-1.7 1.3-2.2 2.1-0.4 0.9-0.5 1.9-0.9 2.7-0.4 0.9-1.1 1.6-1.6 2.4-0.5 0.8-0.9 1.7-1.4 2.5-0.5 0.8 0.4 2.4-0.1 3.3-0.5 0.8-1.2 1.6-1.7 2.4-0.5 0.8-2.3 0.8-2.8 1.6s-1.4 1.4-1.9 2.2c-0.5 0.8-0.6 1.9-1.2 2.7-0.6 0.8-1.8 1-2.4 1.8-0.6 0.8-0.3 2.1-0.9 2.9-0.6 0.8 0.3 2.7-0.3 3.4-0.6 0.8-2.2 0.7-2.8 1.5-0.6 0.7-2.1 0.7-2.7 1.4-0.6 0.7-0.6 2.1-1.2 2.8-0.7 0.7-1.3 1.4-2 2.1-0.7 0.7-0.4 2.4-1.1 3-0.7 0.7-2 0.8-2.7 1.4-0.7 0.7-0.6 2.2-1.4 2.8-0.7 0.6-2.7-0.2-3.4 0.4-0.8 0.6-1.7 0.9-2.5 1.4-0.8 0.6-1.5 1.1-2.3 1.7-0.8 0.6-0.3 3-1.1 3.5s-2.9-1.1-3.7-0.6c-0.8 0.5-0.5 3.3-1.3 3.7-0.9 0.4-1.9 0.6-2.8 1-0.9 0.4-2 0.5-2.9 0.8-0.9 0.3-1.8 0.9-2.7 1.2-0.9 0.3-2.6-2.6-3.6-2.4-1 0.2-1.5 2.4-2.4 2.5-1 0.1-1.9 1.7-2.8 1.7-1 0-1.9-2.3-2.9-2.4-1-0.1-2 0.9-3 0.7-0.9-0.2-1.5-1.9-2.4-2.2-0.9-0.3-2.4 1.1-3.3 0.8-0.9-0.4-1-2.3-1.8-2.7-0.8-0.5-1.3-1.3-2-1.9-0.8-0.6-2.7 0.3-3.4-0.4-0.7-0.7-1.5-1.3-2.1-2-0.6-0.7-0.7-2.7-1.2-3.5-0.7 0.6-2.1 1.2-2.8 1.8-0.7 0.6-1.5 0.9-2.2 1.4-0.7 0.5-1 1.7-1.8 2.1-0.8 0.5-0.5 2.9-1.3 3.3-0.8 0.4-2.7-1.6-3.6-1.2-0.9 0.4-1.3 2.3-2.2 2.6-0.9 0.3-2.3-0.9-3.2-0.7-1 0.2-1.7 1.9-2.6 2-1 0.1-2.2-2.3-3.1-2.2-1 0.1-1.8 1.9-2.8 1.9-1 0-1.8-1.4-2.8-1.5-1-0.1-2.1 1.6-3.1 1.5-1-0.2-1.5-2.3-2.5-2.5-0.9-0.2-2.4 1.4-3.3 1.2-0.9-0.3-2-0.3-2.9-0.6-0.9-0.3-1.8-0.9-2.7-1.3-0.9-0.4-1.4-1.7-2.2-2.2-0.9-0.4-1.7-0.8-2.6-1.3-0.8-0.5-1.1-1.9-1.9-2.4-0.8-0.5-1.7-0.8-2.5-1.4-0.8-0.5-3.1 1-3.9 0.4-0.8-0.6 0-3.2-0.7-3.8-0.8-0.6-2.4-0.2-3.1-0.8-0.7-0.6-1.6-1.1-2.3-1.8-0.7-0.7-1.9-0.8-2.6-1.5-0.7-0.7 0.8-3.4 0.2-4.1-0.6-0.7-2.6-0.3-3.2-1-0.6-0.7-1.8-1-2.4-1.8-0.6-0.8 0.4-2.7-0.2-3.5-0.6-0.8-1.6-1.2-2.2-2-0.5-0.8-2.4-0.8-2.9-1.6s0.7-2.7 0.2-3.6c-0.5-0.8-2.3-0.9-2.8-1.8-0.5-0.8-0.1-2.1-0.6-3-0.4-0.9-1.2-1.5-1.7-2.4-0.4-0.9 0.2-2.2-0.2-3.1-0.4-0.9-1.3-1.5-1.7-2.4-0.4-0.9-0.3-1.9-0.6-2.9-0.3-0.9-1.7-1.4-2-2.4-0.3-0.9-1.2-1.7-1.5-2.6-0.3-0.9 0.1-2.1-0.1-3-0.3-0.9 0.5-2.1 0.3-3.1s-2.8-1.4-3-2.3c-0.2-1 0.4-2.1 0.2-3-0.2-1 0.4-2 0.2-3-0.1-1-0.8-1.9-0.9-2.8-0.1-1 1.8-2.1 1.7-3.1-0.1-1 0.1-1.9 0-2.9 0-1-1.6-1.9-1.6-2.9s0.8-1.9 0.9-2.9c0-1 0.3-1.9 0.4-2.9 0.1-1 0.8-1.8 0.9-2.8 0.1-1-2.2-2.3-2.1-3.2 0.2-1-0.5-2.1-0.3-3.1s1.7-1.7 2-2.6c0.2-0.9 1.3-1.7 1.6-2.6 0.3-0.9 0.7-1.8 1-2.7 0.3-0.9 1.9-1.3 2.3-2.2 0.4-0.9-0.6-2.3-0.1-3.2 0.4-0.9 0.8-1.8 1.3-2.6 0.5-0.9 0.5-2 1-2.8 0.5-0.8 0.2-2.3 0.8-3.1 0.6-0.8 3.7 0.5 4.4-0.2 0.6-0.7 0.7-1.8 1.4-2.5s-0.5-3.5 0.3-4.1c0.7-0.6 3.5 1.2 4.3 0.7 0.8-0.6 1.6-0.9 2.4-1.4 0.8-0.5 1.5-1.1 2.3-1.6 0.9-0.4 1-2.4 1.9-2.8 0.9-0.4 1.5-1.6 2.4-1.9 0.9-0.3 2.2 0.4 3.1 0.2 0.9-0.2 2 0.5 3 0.4 0.9-0.1 1.9 0.7 2.9 0.6 1-0.1 1.8-3.2 2.8-3.2 1 0 2 0.6 2.9 0.7 0.9 0.1 1.8 1.1 2.8 1.2 0.9 0.1 2.2-0.9 3.1-0.7 0.9 0.2 1.9 0.5 2.9 0.8 0.9 0.3 2 0.2 3 0.5 0.9 0.3 1.1 2.7 2 3 0.9 0.4 2.5-0.8 3.3-0.4 0.9 0.4 1.6 1.2 2.4 1.7 0.8 0.4 0.9 2.3 1.8 2.7 0.8 0.5 1.4 1.3 2.2 1.9 0.8 0.5 1 1.7 1.8 2.3 0.8 0.6 1.9 0.5 2.7 1.1 0.7 0.6 2.8-0.4 3.6 0.2 0.7 0.6 1.9 0.8 2.6 1.5 0.7 0.6 1.5 1.3 2.2 2 0.7 0.7 0.9 1.8 1.6 2.5 0.6 0.7 0.4 2.2 1 3 0.6 0.7 0 2.5 0.6 3.2 0.6 0.7 3.7-0.5 4.3 0.3 0.6 0.8 0.2 2.2 0.8 3 0.5 0.8-0.6 2.7 0 3.5 0.5 0.8 1.1 1.5 1.6 2.4 0.5 0.8 2 2 2.4 2.8 0.3-0.6 0.3-2.6 0.6-3.2 0.4-0.9 2.1-1.2 2.5-2 0.4-0.9-0.1-2.2 0.3-3 0.4-0.9-0.1-2.2 0.4-3 0.4-0.9 0.3-2 0.8-2.9 0.4-0.9 3.7-0.2 4.1-1.1 0.5-0.8 1.2-1.5 1.7-2.3l1.5-2.4c0.5-0.8-0.5-2.5 0-3.3 0.5-0.8 2.4-0.7 2.9-1.5s0.6-1.9 1.1-2.6c0.5-0.8-0.1-2.3 0.5-3.1 0.6-0.8-0.4-2.6 0.2-3.4 0.6-0.8 3.6 0.3 4.2-0.5 0.6-0.8-1.1-3.3-0.5-4 0.6-0.8 3.1 0 3.7-0.7 0.6-0.7 0.3-2.3 0.9-3 0.6-0.7 2.8-0.1 3.4-0.8 0.7-0.7 1.3-1.4 2-2.1 0.7-0.7-0.1-2.8 0.6-3.4 0.7-0.7 2.6-0.1 3.3-0.7 0.7-0.7 0.7-2 1.5-2.7 0.7-0.6 1.1-1.7 1.8-2.3 0.8-0.6 2.4 0 3.2-0.5 0.8-0.6 1.2-1.5 2-2.1 0.8-0.6 0.3-3.1 1.1-3.6s2.1-0.3 3-0.8c0.8-0.5 1.3-1.8 2.1-2.2 0.9-0.4 2.6 0.9 3.5 0.5 0.9-0.4 1-2.8 1.9-3.1 0.9-0.3 2.5 1 3.4 0.8 0.9-0.3 1.5-2.1 2.4-2.3 1-0.2 2.3 2 3.3 1.8 1-0.1 1.9 0.3 2.8 0.3 1 0 1.9-1.2 2.8-1.2 1 0.1 1.6 1.8 2.6 1.9 0.9 0.2 2.3-1.8 3.2-1.5 0.9 0.3 1.4 1.7 2.3 2.1 0.9 0.4 1.3 1.4 2.2 1.8 0.8 0.5 1.9 0.4 2.7 1 0.8 0.6 3-0.5 3.7 0.2 0.7 0.7 1.6 1.4 2.2 2.1 0.6 0.7 1.2 1.7 1.8 2.5 0.5 0.8 1.4 1.6 1.9 2.4 0.5 0.8-0.8 2.7-0.4 3.6 0.4 0.8 0.2 2 0.6 2.9 0.4 0.9 3.1 0.9 3.5 1.8 0.3 0.9-1 2.4-0.7 3.3 0.3 0.9 2.2 1.4 2.4 2.4 0.2 0.9-2.3 2.5-2.2 3.4 0.2 0.9 1.6 1.6 1.8 2.6 0.1 0.9 1.5 1.8 1.6 2.7 0.1 0.9-0.2 2-0.1 2.9 0.1 0.9-0.5 2-0.5 2.9 0 0.9 0.5 1.9 0.5 2.9 0 0.9-0.6 1.9-0.7 2.9 0 1 0.9 2 0.8 2.9 0 0.9-2.3 1.8-2.4 2.7-0.1 0.9-0.7 1.8-0.8 2.8-0.1 0.9-0.1 1.9-0.2 2.8-0.1 0.9 0.5 2 0.4 2.9-0.1 0.9 1.5 2.2 1.3 3.1-0.2 0.9-1.6 1.7-1.8 2.6-0.2 0.9-1.9 1.5-2.1 2.5-0.2 0.9 3 2.6 2.8 3.6-0.2 0.9-2.9 1.3-3.1 2.2-0.2 0.9 1.7 2.4 1.5 3.4-0.3 0.9-3.4 1-3.7 2-0.3 0.9 2.7 2.8 2.4 3.7-0.3 0.9-3.2 1-3.5 1.9-0.3 0.9-0.5 1.8-0.8 2.7-0.3 0.9-0.8 1.7-1.2 2.6-0.3 0.9 1.8 2.7 1.4 3.6-0.3 0.9-2.9 0.9-3.3 1.8-1 0.7 0.1 2.2-0.2 3.1z" fill="#ED1C24" p-id="696"></path><path d="M507.3 291.3c-2.3 0-4.2-0.7-5.6-1.6-0.6 0-1.3-0.1-1.9-0.2-1.3-0.2-2.5-0.7-3.5-1.2-1.4 0-2.9-0.2-4.4-0.9-2.4-1-3.9-2.7-4.9-4.2-0.6-0.1-1.3-0.3-2-0.6-0.8 1-2 2-3.4 2.7-1.9 0.9-3.6 1.2-5.2 1.1-0.6 0.3-1.2 0.6-2 0.8-1.4 0.4-2.7 0.5-3.9 0.5-1 0.5-2.2 1-3.6 1.2-1.9 0.3-3.6 0-5-0.5-0.8 0.2-1.6 0.3-2.5 0.3-1 0-2-0.2-2.9-0.4-1.3 0.3-2.8 0.5-4.5 0.2-1.3-0.2-2.5-0.6-3.5-1.2-1 0.1-2.1 0-3.3-0.3h-0.2c-0.8-0.1-2.1-0.3-3.5-0.8-1.3-0.5-2.3-1-3-1.4-0.1-0.1-0.2-0.1-0.3-0.2-2-0.9-3.4-2.2-4.2-3.1-0.5-0.2-0.9-0.5-1.4-0.7-1.1-0.6-2-1.3-2.7-2.1-2 0.1-4.4-0.4-6.7-2.1-1.8-1.3-2.8-2.9-3.5-4.4-0.3-0.2-0.6-0.4-0.9-0.7-0.1-0.1-0.2-0.1-0.3-0.2-0.4-0.3-0.8-0.6-1.4-1-1-0.5-2.5-1.3-3.9-2.7-1.5-1.5-2.3-3.2-2.7-4.7-0.9-0.6-2.3-1.5-3.5-3.1-1.1-1.4-1.7-2.9-2-4.3-1.3-0.8-2.7-1.9-3.8-3.6-0.9-1.3-1.3-2.7-1.5-4-0.5-0.6-0.9-1.2-1.3-1.9-0.8-1.5-1.2-2.8-1.3-4-0.4-0.5-0.8-1.2-1.2-2-0.7-1.4-1-2.8-1.1-3.9-0.4-0.6-0.8-1.3-1.1-2.2-0.3-0.6-0.4-1.3-0.6-1.8-0.6-0.7-1.3-1.6-1.8-2.7-0.6-0.8-1.5-2.2-2.1-4.1-0.5-1.7-0.6-3.2-0.5-4.2-1.1-1.2-2.1-2.9-2.6-5.1-0.4-2.1-0.2-3.9 0-5 0-0.7 0-1.3 0.1-1.8-0.3-0.8-0.6-1.8-0.7-3-0.2-2.2 0.3-4.1 0.9-5.6-0.5-1.2-0.8-2.6-0.8-4.2 0-2.1 0.6-3.8 1-4.8 0.1-0.5 0.1-0.9 0.2-1.2 0-0.2 0.1-0.3 0.1-0.5v-0.1c-0.7-1.3-1.2-2.9-1.2-4.9-0.2-1.2-0.6-3.1-0.1-5.4 0.6-2.8 2.1-4.7 3.2-5.8 0.4-0.7 0.7-1.2 1-1.6 0.1-0.4 0.3-0.8 0.4-1.1 0.1-0.2 0.2-0.5 0.3-0.7 0.4-1.1 0.9-2 1.5-2.8 0.1-1.1 0.4-2.3 1.1-3.6l0.3-0.7c0.2-0.5 0.5-1 0.8-1.6 0.1-0.5 0.3-1.3 0.7-2.1 0.2-1.4 0.7-3.6 2.3-5.8 1.1-1.5 2.6-2.6 4.2-3.3 0.5-1.7 1.5-3.5 3.3-5.1 2.9-2.5 6.1-2.7 8.5-2.4 0.7-1.1 1.8-2.4 3.3-3.4 0.9-0.9 2.6-2.3 5-3.1 2.5-0.8 4.6-0.5 5.9-0.3 0.9 0 1.6 0 2.3 0.1 1.9-1.5 4.1-2.3 6.6-2.3 2.1 0 3.7 0.6 4.6 0.9 0.7 0.1 1.3 0.3 1.9 0.5 1.2-0.2 2.7-0.3 4.4 0.1 1.1 0.2 2.1 0.5 3 0.8h0.1c0.8 0.1 2.3 0.2 3.8 0.8 1.5 0.5 2.8 1.3 3.7 2.2 0.8 0.2 1.7 0.4 2.6 0.8 1.5 0.7 2.5 1.5 3.2 2l0.1 0.1c2.4 1.4 3.7 3.3 4.4 4.8l0.4 0.4c0.6 0.5 1.1 0.9 1.6 1.4 1.7 0 4 0.4 6.1 1.9 0.9 0.4 2.4 1.1 3.8 2.5l0.6 0.6c0.5 0.5 1.1 1 1.8 1.7 1.4 1.4 2.1 2.8 2.6 3.6 0.5 0.6 0.8 1.2 1.1 1.8 1.1-0.8 2.2-1.4 3.3-1.7 0.2-1.4 0.6-3 1.6-4.6 0.9-1.4 2-2.5 3-3.2 0-0.2 0.1-0.4 0.1-0.6-0.1-1.9 0-4.8 2.1-7.6 0.8-1 1.6-1.8 2.5-2.4 0.3-0.8 0.8-1.6 1.5-2.4 1.3-1.6 2.8-2.6 4.3-3.2 0.2-0.3 0.4-0.5 0.6-0.8 1.2-1.4 2.6-2.3 3.9-2.8 0.5-1.3 1.3-2.7 2.6-4 1.3-1.2 2.6-2 3.9-2.5 0.2-0.2 0.3-0.4 0.5-0.5 0.5-0.8 1.4-2.1 2.9-3.3 1-0.8 2-1.4 3-1.7 0.7-1.8 1.9-3.7 4.2-5.2 1.1-0.7 2.1-1.1 3-1.4 0.7-0.7 1.7-1.5 2.9-2.1 1-0.5 2-0.8 3-1 0.9-0.8 2-1.6 3.4-2.1s2.8-0.7 4-0.7c0.9-0.5 1.9-1 3.1-1.2 3.2-0.7 5.8 0.2 7.7 1.2 1.1-0.3 2.5-0.6 4-0.5 1.1 0.1 2 0.3 2.9 0.6 1.5-0.3 3.2-0.3 5.1 0.2 2.9 0.9 4.7 2.6 5.7 3.8 0.3 0.2 0.6 0.4 0.8 0.6 2.2-0.1 5.5 0.3 8.3 2.9 0.2 0.1 0.3 0.3 0.5 0.4 0.7 0.6 1.6 1.4 2.4 2.4 0.8 0.9 1.4 1.9 1.9 2.6 0.1 0.2 0.3 0.4 0.4 0.6l0.3 0.3c0.6 0.7 1.3 1.6 2 2.8 1.2 2 1.5 3.9 1.5 5.6 1.2 1.1 2.3 2.5 3 4.4 0.4 1.2 0.6 2.3 0.6 3.3 0.6 0.9 1.1 2 1.4 3.3 0.5 2 0.3 3.8-0.1 5.3 0.7 1.2 1.4 2.7 1.6 4.6 0.2 1.6 0 2.9-0.1 3.6v0.1c0 1.2-0.1 2.3-0.3 3.1 0.2 0.8 0.3 1.7 0.3 2.9 0 1-0.1 1.9-0.3 2.7 0.3 1 0.5 2.3 0.4 3.7-0.2 3.4-1.8 5.8-3.3 7.3v0.4c0 0.1 0.1 0.3 0.1 0.5 0.9 1.6 1.9 4.2 1.4 7.4-0.3 1.5-0.8 2.8-1.4 3.8 0.5 1.6 0.6 3.4 0.2 5.4-0.3 1.3-0.8 2.4-1.4 3.3 0 0.8-0.1 1.7-0.4 2.6-0.2 0.8-0.5 1.6-0.9 2.2 0.1 1.2 0 2.5-0.5 3.8-0.8 2.5-2.3 4.2-3.8 5.3 0.4 1.8 0.4 3.9-0.5 6.2-0.6 1.6-1.5 2.8-2.5 3.8-0.1 0.5-0.3 1.1-0.6 1.6-0.7 1.5-1.5 2.7-2.5 3.6-0.2 0.6-0.4 1.1-0.6 1.7-0.7 1.5-1.6 2.6-2.5 3.4-0.2 0.5-0.4 1.1-0.8 1.8-0.6 1.1-1.2 1.9-1.5 2.5-0.1 0.1-0.1 0.2-0.2 0.3 0 0 0 0.1-0.1 0.1 0 1.6-0.3 3.7-1.5 5.8-0.5 0.9-1.1 1.7-1.5 2.2-0.1 0.1-0.2 0.3-0.3 0.4-1.4 2.2-3.3 3.5-4.8 4.2-0.3 0.8-0.8 1.7-1.4 2.7-0.5 0.7-1 1.3-1.6 1.8 0 1.9-0.5 4.4-2.4 6.8-1.7 2.1-3.8 3.2-5.1 3.7-0.2 0.1-0.3 0.2-0.5 0.3-0.4 0.7-0.9 1.5-1.6 2.2l-0.4 0.4c-0.4 1.5-1.3 3.4-3 5.1-0.6 0.6-1.3 1.1-1.9 1.5-0.6 1-1.4 2.1-2.5 3.1-2.1 1.8-4.4 2.5-6.3 2.6-0.7 1.8-1.9 3.8-4.3 5.3-1 0.6-1.9 1-2.8 1.3-0.8 0.9-1.8 1.6-3 2.3-1.3 0.7-2.5 1-3.3 1.3-0.1 0-0.2 0-0.2 0.1-1.3 0.5-2.4 0.8-3.2 1h-0.1l-0.1 0.1c-0.7 0.4-1.8 0.9-3.1 1.3-1.8 0.5-3.6 0.6-5.3 0.2-1.4 0.9-3.4 1.9-6 2 0.1 0.3-0.1 0.3-0.2 0.3z m-62.2-4.4z m80.7-0.3z m-87.4-2z m50.6-0.5z m-0.1 0c0.1 0 0.1 0 0 0 0.1 0 0.1 0 0 0z m-61.5-7.8z m81.4-6.6z m-4.4-0.7h0.7c0.5 0 0.9 0.1 1.3 0.2 1.1-0.8 2.4-1.4 4-1.8 2.6-0.6 4.8-0.1 6.5 0.7 0.8-1.4 2-2.8 3.9-3.9 0.8-0.5 1.7-0.8 2.5-1 0.5-0.5 1-1 1.7-1.4 0.7-0.5 1.3-0.9 2-1.5 1.1-0.9 2.2-1.4 2.8-1.7 0.9-0.6 1.8-1.1 2.7-1.4 0.3-0.3 0.6-0.7 1-1 0.4-0.4 0.8-0.7 1.2-1 0.5-1 1.1-2.1 2.1-3.1 0.2-0.2 0.4-0.4 0.5-0.6 0.4-1.1 1.1-2.5 2.3-3.9 1.2-1.4 2.6-2.3 3.8-2.8l0.3-0.6c0.2-1.2 0.7-3.2 2.1-5 0.8-1 1.6-1.8 2.4-2.4 0.2-0.5 0.6-1.1 1-1.7 0.8-1.2 1.7-2.1 2.2-2.6 0.8-1.1 1.8-2 2.7-2.6 0.2-1.1 0.6-2.4 1.3-3.6 0.4-0.8 0.9-1.6 1.3-2.4 0.4-0.8 0.9-1.5 1.3-2 0.2-0.7 0.5-1.7 1-2.8 0.2-0.3 0.3-0.6 0.5-0.9 0-1.3 0.3-2.8 1-4.4 0.7-1.6 1.7-2.8 2.8-3.7 0.1-0.3 0.2-0.6 0.3-0.8 0.3-0.7 0.7-1.4 1.1-2 0.1-1 0.3-2 0.7-3.1 0.3-0.8 0.7-1.6 0.9-2.1 0.1-0.2 0.2-0.3 0.2-0.5 0.1-0.2 0.1-0.4 0.2-0.7 0.2-0.6 0.3-1.2 0.5-1.8 0.2-0.5 0.4-1 0.6-1.4-0.1-1.2 0-2.5 0.4-3.9 0.4-1.5 1.1-2.6 1.9-3.6 0.1-0.4 0.1-0.9 0.3-1.3l0.3-0.9c-0.3-1.3-0.4-2.8 0-4.4 0.4-2.1 1.4-3.7 2.4-4.9 0-0.3 0-0.6-0.1-0.9-0.2-1-0.5-2.6-0.3-4.5 0.1-0.4 0.1-0.8 0.1-1.2 0-0.5 0.1-0.9 0.1-1.4 0.2-1.6 0.6-2.9 0.9-3.7 0.3-1.5 0.8-2.7 1.4-3.7v-0.3c0-1.1 0.2-2.2 0.4-3-0.1-0.6-0.2-1.4-0.3-2.2-0.1-1.5 0.2-2.8 0.4-3.7l-0.3-0.6c-1-1.1-2.2-2.9-2.7-5.5-0.3-1.6-0.2-3.1 0.1-4.4 0-0.1-0.1-0.3-0.1-0.4-0.1-0.2-0.1-0.4-0.2-0.7-0.9-0.9-1.6-2-2.2-3.3-0.7-1.6-0.9-3-0.9-4-0.4-1.2-0.5-2.3-0.5-3.4-1-0.1-2.2-0.4-3.3-1-0.8-0.2-2.1-0.6-3.4-1.4-0.6-0.4-1.2-0.7-1.6-1.1-0.9 0.1-1.8 0-2.7-0.1-0.9-0.2-1.7-0.4-2.4-0.7-0.3 0-0.6 0.1-0.9 0.1-1.4 0.1-2.5-0.1-3.2-0.3-0.8 0-1.5-0.1-2.2-0.2-0.2 0.1-0.4 0.1-0.6 0.2-0.5 0.2-1 0.3-1.5 0.3-0.7 0.6-1.6 1.1-2.5 1.6-1.4 0.6-2.8 0.9-4.1 0.9-0.1 0.1-0.3 0.2-0.4 0.3-0.6 1.1-1.4 2.3-2.6 3.3-0.5 0.6-1.3 1.6-2.6 2.5-1.1 0.8-2.2 1.4-3.3 1.7-0.5 1-1.3 2.1-2.4 3.2-0.6 0.5-1.1 0.9-1.7 1.3-0.4 0.8-1 1.7-1.8 2.5-0.6 0.6-1.2 1.2-1.8 1.9-1 1.1-2.2 1.9-3.3 2.4-0.2 0.3-0.5 0.6-0.7 1-0.4 0.5-0.9 1-1.3 1.3-0.3 1-0.9 2-1.6 3-0.9 1.1-1.8 2-2.9 2.6-0.2 1-0.5 2-1.1 3.1-0.3 0.8-0.7 2-1.6 3.3-0.5 0.8-1.1 1.5-1.7 2-0.2 0.8-0.6 1.7-1.1 2.5-0.3 0.5-0.6 1-1 1.5-0.2 0.2-0.3 0.5-0.5 0.7-0.7 1.2-1.4 2-1.8 2.5l-0.1 0.1c-1.1 1.8-2.5 3-3.9 3.8 0 1.3-0.1 3.1-1.1 5.1-0.7 1.5-1.6 2.6-2.5 3.5-0.1 0.5-0.3 1-0.5 1.6l-7.9 18.5-9.6-16.8-0.1-0.1c-0.7-0.7-1.7-1.8-2.6-3.1-0.2-0.4-0.5-0.8-0.7-1.1-0.2-0.3-0.4-0.6-0.6-1-0.8-1.2-1.2-2.4-1.5-3.5-1-0.6-2-1.4-2.9-2.5-1.9-2.3-2.4-4.9-2.5-6.5-0.2-0.5-0.3-1-0.4-1.5-0.1-0.2-0.2-0.3-0.3-0.5-1.5 0-3.3-0.3-5.1-1.2-1-0.3-2.5-0.8-4.1-1.9-1.6-1.1-2.5-2.4-3.2-3.4-0.3-0.3-0.6-0.5-0.8-0.7-0.9-0.7-1.7-1.4-2.3-2.2-1-0.1-2.1-0.3-3.2-0.8-1.9-0.8-3.2-1.9-4.2-3.1-1.2 0.3-2.7 0.4-4.3 0.2-0.5-0.1-0.9-0.2-1.3-0.3-1.3 0.9-3 1.5-5 1.7-2 0.1-3.6-0.3-4.8-0.6-0.3 0-0.7-0.1-1-0.1-0.8 1.1-2 2.2-3.5 3-0.1 0-0.1 0.1-0.2 0.1-0.4 0.3-1 0.7-1.7 1.2-0.5 0.3-1.1 0.6-1.6 0.9-0.1 0.1-0.2 0.1-0.3 0.2-0.7 0.5-1.4 0.9-2.1 1.1-0.4 0.8-1 2-2 3.2-1.3 1.5-2.8 2.4-4.3 2.9-0.2 0.4-0.3 0.8-0.5 1.2 0.1 1.4-0.1 3.3-0.9 5.2-0.8 1.9-2 3.2-3 4.1-0.5 1.5-1.2 2.7-1.8 3.5 0.8 1.6 1.4 3.7 1.1 6.1-0.2 1.6-0.6 2.8-1 3.6 0 0.3-0.1 0.6-0.1 0.9 0 0.2-0.1 0.3-0.1 0.5 0 0.3-0.1 0.7-0.1 1 0.5 1.1 0.8 2.4 0.9 3.9v2.6c0.1 2-0.3 3.6-0.9 5v0.1c0.1 1.1 0.1 2.1 0 2.9 1 1.1 1.9 2.6 2.3 4.5 0.5 2.1 0.3 4 0 5.2v0.1c1 0.9 2.2 2.4 3 4.5 0.3 0.8 0.5 1.5 0.6 2.1 0.5 0.7 1.1 1.5 1.5 2.6 0.6 1.4 0.8 2.6 0.9 3.7 0.2 0.4 0.5 0.8 0.7 1.2 0.2 0.5 0.4 0.9 0.6 1.4 0.9 0.7 1.7 1.6 2.4 2.8 0.7 1.1 1.1 2.2 1.3 3.3l0.2 0.2c0.7 0.5 1.8 1.5 2.8 2.8 0.7 1 1.2 2 1.5 3 1.2 0.5 2.5 1.4 3.6 2.6 1.5 1.7 2.2 3.4 2.6 5.1 1.3 0.3 2.8 1 4.2 2.1 0.7 0.6 1.3 1.2 1.8 1.8 0.7 0.3 1.4 0.6 2.1 1.1 0.1 0.1 0.3 0.1 0.4 0.2 0.5 0.2 1.1 0.6 1.8 1 1.5 0.9 2.6 2.1 3.4 3.1 0.1 0 0.2 0.1 0.3 0.1 1.4 0.7 2.5 1.6 3.3 2.4 1.5-0.5 3.5-0.7 5.7-0.2 0.9 0.2 1.6 0.5 2.3 0.8 0.6-0.1 1.2-0.1 1.9 0 0.5 0 0.9 0.1 1.3 0.2 0.8-0.3 1.8-0.5 2.8-0.6 1.5-0.1 2.8 0.1 3.9 0.5 0.1 0 0.2 0 0.3-0.1l1.8-0.3c0.6-0.4 1.3-0.8 2.1-1.1 0.7-0.3 1.3-0.5 2-0.6 0.6-0.8 1.5-1.7 2.7-2.6 0.8-0.5 1.4-0.9 1.9-1.1l0.1-0.1c0.9-0.7 1.7-1.1 2.3-1.5 0 0 0.1 0 0.1-0.1l7.8-7.3 6.6 9.3c0.5 0.6 0.8 1.3 1.1 1.9 1.1 0.3 2.3 0.9 3.5 1.7 0.9 0.7 1.6 1.4 2.1 1.9 0.6 0.1 1.3 0.2 1.9 0.4 0.7 0.7 1.5 1 2.2 1.5z m-53.7-1.3z m-4.5-1.6s0 0.1 0 0c0 0.1 0 0 0 0z m105-0.1z m-141.5-4.3z m119.5-2.7z m31.7-5.1zM425 248.8z m117.2-2.5s0 0.1 0 0c0 0.1 0 0 0 0z m0 0z m-121.3-4z m153.2-9z m-23.2-0.4z m-161.9-11z m-2.7-9.4z m-0.5-29.7z m21.2-1.5z m165.4-0.3v0z m0.4-5.2c0 0.1 0 0.1 0 0 0 0.1 0 0.1 0 0z m19.5-0.2z m-121.7-1.3z m-81.2-1.1z m115.8-0.8z m88.1-2.9zM461 166.4z m-43-2.5z m39.2-0.4z m-1.8-1.6z m56.7-0.9z m-87.3-1.6z m29.2 0z m58.4-1.4z m-28 0z m28.1 0s-0.1 0 0 0c-0.1 0 0 0 0 0z m-116.5-0.9z m30-0.2s0 0.1 0 0c0 0.1 0 0 0 0z m6.1-0.6z m-2.2-0.6z m165.6-2.1v0z m-118.2-2.4z m116.6-4z m-24.1-10.4z m-144.3-0.6z m138.1-6.5z m24.1-1.8z m0 0z m-35.3-0.8z m-35.5-3.6z m7.9-5.6z m44-8.2z" p-id="697"></path><path d="M936.2 592c0 1-4.1 2-4.1 2.9 0 1-3 1.9-3 2.9v2.9c0 1 6.5 2.2 6.5 3.2s-15.1 1.2-15.1 2.2c-0.1 1-0.1 1.8-0.1 2.8-0.1 1 12.1 2.7 12.1 3.7-0.1 1 2.6 2.2 2.5 3.2-0.1 1-3.7 1.7-3.8 2.6-0.1 1 1.8 2.2 1.7 3.1-0.1 1-5.2 1.4-5.3 2.4-0.1 1-3.5 1.5-3.7 2.5-0.1 1 1.2 2.1 1 3-0.1 1-2.6 1.6-2.7 2.5-0.1 1 9.4 3.4 9.3 4.4-0.2 1-12.3-0.1-12.5 0.9-0.2 0.9 9.6 3.6 9.4 4.6-0.2 0.9-8.8 0.3-9 1.3-0.2 0.9-3.5 1.2-3.7 2.2-0.2 0.9 2.4 2.4 2.2 3.3-0.2 0.9 9.2 4 9 4.9-0.2 0.9-1.4 1.7-1.6 2.6-0.2 0.9-5.2 0.8-5.4 1.7-0.2 0.9 1.4 2.3 1.2 3.3-0.2 0.9-8.2-0.2-8.4 0.8-0.2 0.9 5.6 3.5 5.3 4.4-0.3 0.9 6 3.7 5.8 4.7-0.3 0.9-1.2 1.7-1.5 2.6-0.3 0.9-4.6 0.6-4.9 1.6-0.3 0.9-9.5-1-9.8-0.1s12.8 6.2 12.4 7.1c-0.3 0.9-13-2.4-13.3-1.5-0.3 0.9 2.5 2.8 2.1 3.8-0.3 0.9 9.4 5.5 9.1 6.4-0.3 0.9-0.6 1.9-0.9 2.8-0.3 0.9-14.9-3.7-15.2-2.8-0.4 0.9 13.2 7.3 12.8 8.2-0.4 0.9-9.5-1.8-9.9-0.9-0.4 0.9 3.1 3.4 2.7 4.3-0.4 0.9-9-1.8-9.4-0.9-0.4 0.9 3.3 3.5 2.9 4.4-0.4 0.9-2.1 1.1-2.5 2-0.4 0.9 7 5.4 6.6 6.3-0.4 0.9 2.4 3.3 2 4.2-0.4 0.9-0.9 1.8-1.3 2.6-0.4 0.9-14.6-5.2-15-4.3-0.4 0.9 4.9 4.6 4.5 5.5-0.4 0.9 2.7 3.6 2.2 4.5-0.5 0.8-8.9-2.6-9.4-1.8s6.6 5.8 6.1 6.7c-0.5 0.8-4.3-0.2-4.7 0.7-0.5 0.8-7-1.9-7.5-1-0.5 0.8 5.1 5.2 4.6 6-0.5 0.8 2.7 3.9 2.2 4.7-0.5 0.8 1.6 3.3 1.1 4.1-0.5 0.8-1.7 1.3-2.2 2.1-0.5 0.8 0.8 2.9 0.3 3.7-0.5 0.8-1.9 1.1-2.4 1.9-0.5 0.8-8.4-3.3-9-2.5-0.5 0.8 2.2 3.8 1.6 4.6-0.5 0.8 3.9 5 3.3 5.8-0.5 0.8-4.1-0.4-4.6 0.3-0.6 0.8-4.4-0.8-5 0-0.6 0.8-0.6 1.9-1.2 2.7-0.6 0.8-7.5-3.2-8-2.4-0.6 0.8 8.3 8.7 7.7 9.5-0.6 0.8-5.3-1.6-5.9-0.9-0.6 0.8-2.3 0.6-2.9 1.4-0.6 0.8-5.4-1.9-6-1.1-0.6 0.7-1 1.6-1.6 2.3-0.6 0.7 6.9 8.2 6.3 9-0.6 0.7-6.9-3.3-7.5-2.6-0.6 0.7 1.5 3.8 0.9 4.5-0.6 0.7-3.2-0.2-3.8 0.5-0.6 0.7-2.9 0-3.5 0.7-0.6 0.7 2 4.4 1.4 5.1-0.6 0.7 1.6 4 0.9 4.8-0.7 0.7-0.3 2.3-1 3.1-0.7 0.7-7-3.9-7.6-3.2-0.7 0.7 1.3 3.9 0.6 4.5-0.7 0.7 2.5 5.2 1.8 5.9-0.7 0.7-4.3-1.6-5-0.9-0.7 0.7 2 4.7 1.3 5.4-0.7 0.7-4.9-2.2-5.6-1.5-0.7 0.7-3.7-1.1-4.4-0.4-0.7 0.7 4.7 7.7 4 8.4-0.7 0.7-6.7-4.4-7.4-3.7-0.7 0.7-2.1 0.5-2.9 1.1-0.7 0.6-0.4 2.4-1.1 3.1-0.7 0.6-5.3-3.1-6-2.5-0.7 0.6-1.1 1.6-1.8 2.3-0.7 0.6 5.5 9.4 4.8 10-0.7 0.6-8.3-6.8-9-6.2-0.7 0.6 4 7.7 3.2 8.3-0.7 0.6-3-0.6-3.7 0-0.7 0.6-2.8-0.4-3.6 0.2-0.7 0.6-1.5 1.2-2.3 1.8-0.8 0.6 3.9 8.1 3.1 8.7-0.8 0.6-6.5-5.2-7.2-4.6-0.8 0.6 2.2 6.1 1.5 6.7-0.8 0.6-1.2 1.7-2 2.3-0.8 0.6-7.2-6.4-8-5.9-0.8 0.6-0.5 2.5-1.3 3-0.8 0.6-1.7 0.8-2.5 1.4-0.8 0.6 1.8 5.9 1 6.4-0.8 0.6-6.1-5.4-6.9-4.9-0.8 0.5 2.5 7 1.7 7.5s1 5 0.2 5.6c-0.8 0.5-7.3-7.5-8.1-6.9-0.8 0.5-0.3 3-1.1 3.5s-2.2 0.2-3 0.7c-0.8 0.5-1.1 1.8-1.9 2.3-0.8 0.5 2.1 7 1.3 7.5s-2.9-1-3.7-0.5c-0.8 0.5-8-9.5-8.9-9-0.8 0.5 4.4 11.1 3.6 11.6-0.8 0.5-7.8-9.5-8.6-9-0.8 0.5 3.4 9.6 2.6 10.1-0.8 0.5 1.5 6.5 0.6 7-0.8 0.5-7.5-9.4-8.4-9-0.8 0.5-1.2 1.7-2.1 2.2-0.8 0.5 0.5 4.9-0.3 5.4s0.1 4.3-0.8 4.7c-0.8 0.5-7.9-10.9-8.8-10.4-0.9 0.4 0.4 4.9-0.4 5.3-0.9 0.4-1.2 1.8-2.1 2.2-0.9 0.4 2.1 8.5 1.3 9-0.9 0.4-7-9.8-7.9-9.4-0.9 0.4 3.7 11.9 2.8 12.4-0.9 0.4-2.2 0.1-3 0.5-0.9 0.4-3-1.7-3.9-1.3-0.9 0.4-6.4-9.4-7.3-9-0.9 0.4 1.6 8.1 0.7 8.5-0.9 0.4-3.7-3.5-4.5-3.1-0.9 0.4 3 11.7 2.2 12.1-0.9 0.4-4.1-4.6-5-4.2-0.9 0.4 0 4.9-0.9 5.3-0.9 0.4-2.5-0.9-3.4-0.6-0.9 0.4-3.3-2.9-4.2-2.5-0.9 0.4-1.9 0.4-2.8 0.7-0.9 0.4-2.4-0.9-3.3-0.5-0.9 0.4-2.4-1-3.3-0.6-0.9 0.3 0.6 7-0.3 7.3-0.9 0.3-1.7 1-2.6 1.3-0.9 0.3-2.8-2.1-3.7-1.8-0.9 0.3-2.4-0.9-3.3-0.6-0.9 0.3 0.8 8-0.2 8.3-0.9 0.3-6.4-12.5-7.3-12.2-0.9 0.3-0.3 4.9-1.2 5.2-0.9 0.3-3.3-4-4.2-3.7-0.9 0.3-0.5 4.6-1.4 4.9-0.9 0.3 1.2 10 0.2 10.3-0.9 0.3-4-6.4-5-6.1-0.9 0.3-2 0.2-2.9 0.4-0.9 0.3-1.6 1.5-2.5 1.8-0.9 0.3-0.5 5.2-1.4 5.5-0.9 0.3-4.2-7.7-5.1-7.5-0.9 0.3-0.7 4.7-1.6 5-0.9 0.3-2-0.1-3 0.1-0.9 0.3-1 3.8-1.9 4-0.9 0.2-2.8-3.2-3.8-2.9-0.9 0.2-1 4.1-1.9 4.3-0.9 0.2-2.5-2-3.4-1.8-0.9 0.2-1.9 0.5-2.8 0.7-0.9 0.2-0.5 6.4-1.4 6.6-0.9 0.2-4.5-11-5.4-10.8-0.9 0.2-0.3 7.6-1.2 7.8-0.9 0.2-2.4-2.1-3.4-1.9-0.9 0.2-0.3 7.9-1.3 8.1-0.9 0.2-4.2-11-5.2-10.8-0.9 0.2-0.9 5.4-1.8 5.6-0.9 0.2-0.6 7.2-1.5 7.4-0.9 0.2-4.6-14-5.5-13.9-0.9 0.2-0.9 5.9-1.8 6.1-0.9 0.2-3-6.2-3.9-6-0.9 0.2 0.1 12.3-0.8 12.5-0.9 0.2-3.3-8.7-4.3-8.5-0.9 0.2-1.1 5.5-2 5.6-1 0.1-2.9-6.8-3.9-6.6-1 0.1-1.9-0.2-2.9 0-1 0.1-1.6 2-2.6 2.2-1 0.1-0.9 7.7-1.9 7.8-1 0.1-2.9-7.3-3.8-7.2-1 0.1-0.2 14.1-1.2 14.2-1 0.1-3.8-16-4.7-15.9-1 0.1-1.4 4.7-2.3 4.8-1 0.1-1.2 6.7-2.2 6.8-1 0.1-2.4-4.8-3.4-4.7-1 0.1-1.5 4.6-2.5 4.7-1 0.1-1.5 5.3-2.5 5.4-1 0.1-2.9-11.4-3.8-11.3-1 0.1-1.9-0.5-2.9-0.5-1 0.1-1.9-0.5-2.9-0.4-1 0.1-1.9-0.3-2.9-0.2-1 0.1-1.3 11.1-2.2 11.2-1 0.1-1.9 0.5-2.9 0.6-1 0-2-0.8-3-0.8s-2-0.8-2.9-0.8c-1 0-1.9 1.8-2.8 1.8-1 0-2.3-12.7-3.3-12.7s-1.8 4.4-2.8 4.4c-1 0-1.8 7.6-2.7 7.7-1 0-2.1-10.4-3-10.4-1 0-1.9 1.2-2.9 1.2s-1.9 4.2-2.9 4.2-1.9-2-2.9-2-1.9 1.3-2.9 1.3-2 3.3-2.9 3.3c-1 0-2 2.3-3 2.3s-1.9-1.6-2.9-1.7c-1 0-2 1.5-3 1.5s-1.6-9.2-2.6-9.2-1.9-0.9-2.8-0.9c-1 0-2.6 13.3-3.5 13.3-1 0-1.5-8.4-2.5-8.4-1-0.1-2.3 6-3.3 5.9-1-0.1-1.6-4.8-2.6-4.9-1-0.1-2 1-3 0.9-1-0.1-1.9-0.4-2.9-0.5-1-0.1-1.3-7.5-2.3-7.6-1-0.1-3 12.7-4 12.6-1-0.1-1.6-3.9-2.6-4-1-0.1-1.1-8.1-2.1-8.2-1-0.1-2.3 3.7-3.3 3.5-1-0.1-2.1 1-3 0.9-1-0.1-2.3 3-3.3 2.9-1-0.1-0.4-12.6-1.4-12.7-1-0.1-2.7 5.9-3.6 5.8-1-0.1-2.6 5-3.6 4.9-1-0.1-1.6-2.8-2.5-2.9-1-0.1-2.9 6.3-3.8 6.2-1-0.1-1.5-3-2.5-3.2-1-0.1-1.7-1.9-2.6-2.1-1-0.2-0.5-9.2-1.4-9.3-1-0.2-2.3 2-3.2 1.9-0.9-0.2-1.2-4.2-2.1-4.3-0.9-0.2-3 6.1-4 5.9-0.9-0.2-2.7 3.9-3.6 3.7-0.9-0.2-2.7 3.8-3.7 3.6-0.9-0.2-1.3-3.7-2.2-3.9-0.9-0.2-0.5-7.1-1.5-7.3-0.9-0.2-1.4-2.8-2.3-3-0.9-0.2-3.4 6.9-4.4 6.7-0.9-0.2-2.9 3.9-3.8 3.6-0.9-0.2-1.4-2.7-2.3-2.9-0.9-0.2-2.4 1.8-3.4 1.5-0.9-0.2 0.9-12.1 0-12.4-0.9-0.2-1.4-2.1-2.4-2.3-0.9-0.2-5.2 12.8-6.2 12.5-0.9-0.2-0.4-6.3-1.3-6.5-0.9-0.2-3.8 6.7-4.7 6.5-0.9-0.3 0.8-10.3-0.1-10.6-0.9-0.3-2 0-2.9-0.3-0.9-0.3 0-6.7-1-7-0.9-0.3-4 7-5 6.8-0.9-0.3-2.3 0.9-3.2 0.7-0.9-0.3-0.6-4.7-1.5-5-0.9-0.3-3.1 3.6-4 3.3-0.9-0.3 1-9.4 0.1-9.7-0.9-0.3-3.9 6-4.9 5.7-0.9-0.3-4.4 7.2-5.3 6.9-0.9-0.3 0.6-8-0.3-8.3-0.9-0.3-1.3-2.1-2.2-2.4-0.9-0.3-2.2 0.4-3.1 0.1-0.9-0.3-4.5 6.9-5.4 6.6-0.9-0.3-0.5-4.3-1.4-4.7-0.9-0.3 0-5.6-0.9-5.9-0.9-0.3 0-5.3-0.9-5.6-0.9-0.3-4.7 6.9-5.6 6.5-0.9-0.4 0.5-6.5-0.4-6.8-0.9-0.4-4.4 5.8-5.3 5.4-0.9-0.4-3.6 3.6-4.5 3.2-0.9-0.4 2.4-10.7 1.5-11.1-0.9-0.4-6.4 10.2-7.3 9.8-0.9-0.4-1.2-2.2-2.1-2.5-0.9-0.4 1.8-8.9 0.9-9.3-0.9-0.4-0.1-4.4-1-4.8-0.9-0.4-2.9 1.7-3.7 1.3-0.9-0.4-0.9-2.6-1.8-3-0.9-0.4-5.5 7.2-6.4 6.8-0.9-0.4 2.8-10.2 1.9-10.6-0.9-0.4-6.4 8.7-7.2 8.3-0.9-0.4-4 3.6-4.8 3.1-0.9-0.4 5.1-14.5 4.3-14.9-0.9-0.4-8.7 12.8-9.6 12.4-0.9-0.4 4.9-13.6 4-14.1-0.9-0.4-0.9-2.3-1.7-2.8-0.8-0.5-1.5-1.2-2.3-1.6-0.8-0.5-5.3 5.8-6.2 5.4-0.8-0.5-1-2.2-1.8-2.7s-1.3-1.5-2.2-2c-0.8-0.5-0.7-2.6-1.5-3.1s-4.4 3.7-5.2 3.2c-0.8-0.5-1.1-2-1.9-2.5-0.8-0.5-2.4 0.2-3.2-0.3-0.8-0.5 0.8-5.1 0-5.6s-1.4-1.3-2.3-1.8c-0.8-0.5-3.5 2-4.3 1.5-0.8-0.5-1-2-1.8-2.5s-5.9 5.5-6.7 5c-0.8-0.5 4-9.7 3.2-10.2-0.8-0.5-6.1 5.7-6.9 5.1-0.8-0.5 0.6-4.4-0.1-5-0.8-0.5 0.5-4.1-0.3-4.7-0.8-0.5-0.4-2.8-1.2-3.3-0.8-0.6-5.7 4.7-6.5 4.2-0.8-0.6 2-6 1.2-6.6-0.8-0.6-6.2 5.3-7 4.7-0.8-0.6 3.8-8.3 3-8.9-0.8-0.6-1.5-1.2-2.2-1.8-0.8-0.6-3.6 1.6-4.4 1-0.8-0.6 1.2-4.6 0.5-5.2-0.8-0.6-4.4 2.5-5.1 1.9-0.8-0.6-2.4 0-3.2-0.6-0.7-0.6-0.4-2.6-1.1-3.2-0.7-0.6-0.5-2.4-1.2-3-0.7-0.6-4 1.8-4.8 1.2-0.7-0.6-2-0.6-2.7-1.2-0.7-0.6-5.9 3.8-6.6 3.2-0.7-0.6 1.7-4.9 1-5.6-0.7-0.6 2.7-5.9 2-6.6-0.7-0.6-4.4 2-5.1 1.4-0.7-0.6-5.9 3.6-6.6 2.9-0.7-0.7-0.2-2.6-0.9-3.3-0.7-0.7 3.6-6.6 2.9-7.3-0.7-0.7-5.1 2.5-5.8 1.8-0.7-0.7-4.3 1.6-5 0.9-0.7-0.7-0.6-2.2-1.3-2.9-0.7-0.7 7.6-10.2 6.9-10.9-0.7-0.7-1.5-1.1-2.2-1.8-0.7-0.7-9.6 6.6-10.3 5.9-0.7-0.7-1.6-1.2-2.2-1.9-0.7-0.7 1.4-4 0.7-4.7-0.7-0.7 2.1-4.5 1.4-5.2-0.6-0.7-5 1.9-5.7 1.2-0.6-0.7 1.4-3.8 0.7-4.5-0.6-0.7-7.4 3.8-8 3.1-0.6-0.7 7.5-9 6.9-9.7-0.6-0.7-9.6 5.5-10.2 4.8-0.6-0.7 10.2-10.9 9.6-11.7-0.6-0.7-9.4 5.2-10 4.4-0.6-0.7-2.7-0.3-3.3-1.1-0.6-0.8-1.4-1.4-2-2.1-0.6-0.8 7.3-8.1 6.7-8.8-0.6-0.8-5.6 1.8-6.1 1.1-0.6-0.8-6.5 2.4-7 1.6-0.6-0.8 5.6-6.5 5.1-7.3-0.6-0.8-8.1 3.4-8.6 2.6-0.6-0.8 4.1-5.2 3.5-6-0.5-0.8-7 2.4-7.5 1.6-0.5-0.8 6.2-6.5 5.6-7.3-0.5-0.8-7.6 2.7-8.1 1.9-0.5-0.8 6.1-6.3 5.6-7.1-0.5-0.8 1.4-3.2 0.9-4-0.5-0.8-4.2 0.4-4.7-0.4s0-2.2-0.5-3c-0.5-0.8 1.7-3.2 1.2-4-0.5-0.8-6.3 1.5-6.8 0.7s4.6-4.9 4.2-5.7c-0.5-0.8-4.7 0.5-5.2-0.4-0.5-0.8-0.9-1.7-1.4-2.5-0.5-0.8 2.4-3.5 2-4.3-0.5-0.8-10.6 3.4-11 2.5-0.4-0.9 3.8-4.1 3.3-5-0.4-0.9-4.8 0.2-5.2-0.6-0.4-0.9 5.1-4.6 4.6-5.5-0.4-0.9-0.5-1.9-0.9-2.7-0.4-0.9-3.7-0.4-4.1-1.3-0.4-0.9-6.6 0.8-7 0-0.4-0.9-1-1.7-1.4-2.6-0.4-0.9 1.1-2.7 0.8-3.5-0.4-0.9 6.6-4.9 6.2-5.8-0.4-0.9 1.8-2.8 1.4-3.7-0.4-0.9-6.4 0.5-6.8-0.4-0.3-0.9 0.1-2.1-0.3-3-0.3-0.9 5.3-4 5-4.9-0.3-0.9-3.7-0.7-4-1.6-0.3-0.9-5.9 0-6.2-0.9-0.3-0.9-4.1-0.7-4.4-1.6-0.3-0.9 0.8-2.3 0.5-3.2-0.3-0.9 6.1-4 5.8-4.9-0.3-0.9 4-3.2 3.7-4.1-0.3-0.9-7.8 0.3-8.1-0.6-0.3-0.9 2.2-2.6 1.9-3.5-0.3-0.9-3.3-1.1-3.6-2-0.2-0.9-7.8 0-8-0.9-0.2-0.9 3-2.8 2.8-3.7-0.2-0.9 1.8-2.4 1.6-3.4-0.2-0.9 6.5-3.4 6.3-4.4-0.2-0.9-2.6-1.4-2.8-2.3-0.2-0.9-4.4-1-4.6-2-0.2-0.9 6.1-3.1 5.9-4.1-0.2-0.9 2.1-2.3 1.9-3.2-0.2-0.9-7.4-0.6-7.6-1.6-0.2-0.9-6.7-0.9-6.8-1.8-0.2-0.9 13.4-4 13.2-4.9-0.1-1-5.2-1.1-5.3-2.1-0.1-1 3.8-2.4 3.6-3.3-0.1-1-9.9-0.7-10-1.7-0.1-1-4.2-1.5-4.3-2.5-0.1-1 6.1-2.6 6-3.5-0.1-1 6.1-2.4 6-3.4-0.1-1-1.3-1.8-1.4-2.7-0.1-1-4.6-1.6-4.7-2.5-0.1-1-8.4-1.5-8.4-2.4-0.1-1 0-2 0-3s7.9-2.3 7.8-3.2c0-1-1.9-1.9-2-2.8 0-1 9.9-2 9.9-3s-0.9-1.8-0.9-2.8c0-1-1.1-1.9-1.1-2.8 0-1-8.3-2-8.3-3s8-1.7 8-2.7c0-1-12.2-2.4-12.1-3.3 0-1 6.7-1.6 6.8-2.6 0.1-1 4.6-1.6 4.7-2.6 0.1-1-11.5-2.7-11.5-3.7 0.1-1 10.1-1.2 10.2-2.1 0.1-1-4.6-2.3-4.5-3.3 0.1-1 1.6-1.8 1.7-2.7 0.1-1-3.2-2.3-3.1-3.3 0.1-1-0.2-2 0-3 0.1-1-1.4-2.2-1.3-3.1 0.1-1 12.6-0.1 12.8-1.1 0.1-1-4.1-2.5-4-3.5 0.2-1-5.3-2.8-5.2-3.8 0.2-0.9 11.4 0.1 11.6-0.9 0.2-0.9-8.7-3.5-8.5-4.5 0.2-0.9-3.2-2.6-3-3.6 0.2-0.9 13.4 0.8 13.6-0.1 0.2-0.9-12.4-4.7-12.2-5.6 0.2-0.9 7.5-0.3 7.7-1.2 0.2-0.9-2.1-2.5-1.8-3.4 0.2-0.9 7.6 0 7.8-1 0.2-0.9-14-5.7-13.8-6.6 0.2-0.9 12 1.3 12.3 0.3 0.3-0.9 1.8-1.4 2.1-2.4 0.3-0.9-8.8-4.6-8.6-5.5 0.3-0.9-1.4-2.5-1.1-3.4 0.3-0.9 3.4-1 3.7-1.9 0.3-0.9 10.6 1.5 10.9 0.6s-0.7-2.2-0.4-3.1c0.3-0.9 2-1.3 2.3-2.2 0.3-0.9-0.1-2 0.2-2.9 0.3-0.9-10.6-6-10.2-6.9 0.3-0.9 5.5 0 5.8-0.9 0.4-0.9 0.7-1.8 1-2.7 0.4-0.9 8.7 1.5 9.1 0.6 0.4-0.9-13.8-7.9-13.4-8.8 0.4-0.9 11.8 3 12.2 2.1 0.4-0.9 3.3-0.6 3.7-1.4 0.4-0.9-9.9-6.6-9.5-7.5 0.4-0.9 1.4-1.5 1.8-2.4 0.4-0.9 3.5-0.5 3.9-1.4 0.4-0.9 0.7-1.8 1.1-2.7 0.4-0.9 3-0.6 3.5-1.5 0.4-0.9 6.7 1.3 7.1 0.5 0.4-0.9-2.3-3.3-1.9-4.2 0.5-0.8 4.3 0.2 4.8-0.6s-3.4-4-3-4.9c0.5-0.8-2.5-3.6-2-4.4 0.5-0.8-3.5-4.2-3-5.1 0.5-0.8-1-2.9-0.5-3.7 0.5-0.8 12.9 5.5 13.4 4.7 0.5-0.8-10.3-8.6-9.8-9.4 0.5-0.8 6.2 1.6 6.7 0.8s2.4-0.8 2.9-1.6 3.1-0.3 3.6-1.1-2.8-4.2-2.3-5c0.5-0.8-0.8-2.9-0.3-3.7 0.5-0.8 0.9-1.8 1.5-2.5 0.5-0.8 0-2.4 0.6-3.2 0.6-0.8 9.5 4.4 10 3.6 0.6-0.8-3.2-4.7-2.7-5.5 0.6-0.8 7.8 3.4 8.3 2.6 0.6-0.8-8.1-8.5-7.5-9.3 0.6-0.8 10 5.3 10.6 4.6 0.6-0.8-0.8-3-0.2-3.8 0.6-0.8-7.3-8.3-6.6-9 0.6-0.7 4.2 0.9 4.8 0.1 0.6-0.7 5.5 2 6.1 1.3 0.6-0.7 0.1-2.4 0.7-3.2 0.6-0.7-3.6-5.6-3-6.3 0.6-0.7 10.9 7 11.5 6.2 0.6-0.7-10.5-11.8-9.8-12.6 0.6-0.7 4.9 1.8 5.6 1.1 0.6-0.7 5.3 2.2 5.9 1.5 0.7-0.7-4.2-6.5-3.5-7.2 0.7-0.7 0.3-2.4 1-3.1 0.7-0.7 11.6 8.5 12.3 7.8 0.7-0.7-9.5-11.9-8.8-12.6 0.7-0.7 10.4 7.6 11.1 6.9 0.7-0.7-3.7-6.4-3-7.1 0.7-0.7 3.1 0.4 3.8-0.3 0.7-0.7 0.8-2 1.5-2.6 0.7-0.7-3.4-6.4-2.7-7.1 0.7-0.7 9.9 7.8 10.6 7.1 0.7-0.7 1.1-1.6 1.8-2.2 0.7-0.6-3.8-7.1-3.1-7.7 0.7-0.6 5.1 2.9 5.9 2.2 0.7-0.6-5.5-9.2-4.8-9.9 0.7-0.6 1.6-1.2 2.3-1.8 0.7-0.6 8.6 7.1 9.3 6.5 0.7-0.6-5.1-9.1-4.4-9.7 0.7-0.6 5.7 3.8 6.4 3.2 0.7-0.6 1-1.9 1.7-2.5 0.7-0.6 7 5.8 7.8 5.2 0.8-0.6 1.8-0.7 2.6-1.3 0.8-0.6-2.1-5.8-1.3-6.4 0.8-0.6 0.9-2 1.6-2.6 0.8-0.6-2.5-6.5-1.7-7.1 0.8-0.6 4.8 3.1 5.5 2.6 0.8-0.6 6.5 5.6 7.2 5.1 0.8-0.6-0.5-3.9 0.3-4.4 0.8-0.6 3.6 1.8 4.4 1.2 0.8-0.6-6.4-12.5-5.6-13.1 0.8-0.5 9.5 10.5 10.3 9.9 0.8-0.5-0.5-4 0.3-4.6 0.8-0.5-4.5-10.3-3.7-10.8 0.8-0.5 6.6 6.5 7.4 6 0.8-0.5 3.3 1.6 4.1 1.1 0.8-0.5-3.6-9.2-2.8-9.7 0.8-0.5 3.3 1.5 4.1 1 0.8-0.5 5.5 5.2 6.3 4.7 0.8-0.5-5-11.9-4.1-12.4 0.8-0.5 2-0.5 2.8-1 0.8-0.5 3.1 1.5 4 1 0.8-0.5 1-2.2 1.8-2.6 0.8-0.5 1-2.1 1.9-2.6 0.8-0.5 7.4 9.2 8.2 8.8 0.8-0.5 2.5 0.7 3.4 0.2 0.8-0.5-4.4-12-3.5-12.5 0.8-0.5 2.4 0.3 3.2-0.1 0.8-0.5 2.6 0.8 3.5 0.4 0.9-0.4 0.9-2.6 1.7-3 0.9-0.4 5.3 6.1 6.1 5.6 0.9-0.4 1.1-2 2-2.4 0.9-0.4 2.3 0.4 3.2 0 0.9-0.4-0.4-5.3 0.4-5.7 0.9-0.4 3.5 2.9 4.4 2.5 0.9-0.4-3.2-11.4-2.4-11.8 0.9-0.4 3.5 2.9 4.4 2.5 0.9-0.4 1.8-0.8 2.7-1.1 0.9-0.4 4.3 4.8 5.1 4.4 0.9-0.4 2.2 0.2 3.1-0.2 0.9-0.4-0.7-6.4 0.2-6.7 0.9-0.4 3.3 2.9 4.2 2.5 0.9-0.4 0-5 0.9-5.3 0.9-0.4 5.2 7.7 6.1 7.3 0.9-0.4 0.1-4.8 1-5.2 0.9-0.4-0.9-7.5 0-7.9 0.9-0.4 4 4.8 4.9 4.5 0.9-0.3 3.2 3 4.1 2.7 0.9-0.3-0.4-6.5 0.5-6.9 0.9-0.3 5.1 8.4 6 8.1 0.9-0.3-3-14.1-2.1-14.4 0.9-0.3 1.4-1.8 2.3-2.1 0.9-0.3 6.4 12.6 7.3 12.3 0.9-0.3-1.6-10.6-0.7-10.9 0.9-0.3 5.6 10.7 6.5 10.4 0.9-0.3-1.9-12.1-1-12.4 0.9-0.3 5 9.2 5.9 8.9 0.9-0.3 0.3-5.6 1.2-5.8 0.9-0.3 3.9 6.3 4.8 6 0.9-0.3-2.5-15.2-1.6-15.5 0.9-0.3 2.3 0.8 3.2 0.5 0.9-0.3 5.4 11.9 6.3 11.6 0.9-0.3 0.5-5.1 1.5-5.3 0.9-0.3 3.1 4.1 4 3.9 0.9-0.3 2.1 0.4 3 0.2 0.9-0.2 0.3-6.5 1.2-6.7 0.9-0.2 0.6-5.5 1.5-5.7 0.9-0.2 1.3-2.9 2.2-3.1 0.9-0.2 2.2 0.8 3.1 0.6 0.9-0.2 1.8-1 2.7-1.2 0.9-0.2 3.9 8.5 4.9 8.2 0.9-0.2 0.5-6.5 1.5-6.7 0.9-0.2 3 4.5 3.9 4.3 0.9-0.2 2.2 1.3 3.2 1.1 0.9-0.2-0.3-11 0.7-11.2 0.9-0.2 3.2 6.4 4.2 6.2 0.9-0.2 1.4-2.8 2.4-3 0.9-0.2 0.9-5.7 1.9-5.9 0.9-0.2 4.3 13.1 5.3 12.9 0.9-0.2-0.3-13.1 0.6-13.2 0.9-0.2 2.6 3.9 3.6 3.8 0.9-0.2 3.1 7.4 4.1 7.2 0.9-0.2 1.6-1.9 2.6-2 1-0.1 1.7-1.4 2.7-1.6 1-0.1 1.2-5.5 2.1-5.6 1-0.1 3 7.6 3.9 7.4 1-0.1 0.8-8.8 1.7-8.9 1-0.1 2.9 7.7 3.9 7.6 1-0.1 0.8-9.8 1.7-9.9 1-0.1 2.4 3.5 3.3 3.4 1-0.1 2.1 1.7 3.1 1.6 1-0.1 1.4-5.7 2.3-5.8 1-0.1 2.6 7 3.6 6.9 1-0.1 1.3-7.4 2.2-7.4 1-0.1 2.3 4.2 3.3 4.1 1-0.1 1.5-5.1 2.5-5.1 1-0.1 2.5 7.5 3.5 7.4 1-0.1 2 0.8 2.9 0.7 1-0.1 1.6-5.1 2.6-5.2 1-0.1 1.6-5.7 2.6-5.8 1-0.1 2.3 5.9 3.2 5.9 1 0 1.9-0.1 2.9-0.1s1.7-5.5 2.7-5.5c1 0 1.9-1.1 2.9-1.1s2.1 5.1 3.1 5.1 2.1 5.6 3 5.6c1 0 1.8-7.6 2.7-7.6 1 0 1.9-2.7 2.9-2.7s2 7.8 3 7.7c1 0 1.9-8.7 2.9-8.7s1.9 6.8 2.9 6.8 1.9 6.7 2.8 6.7c1 0 2-4.3 2.9-4.3 1 0 1.9 2.7 2.8 2.7 1 0 2.2-9.8 3.1-9.8 1 0 1.6 11.1 2.6 11.2 1 0 2.3-11.5 3.3-11.5s1.5 9.9 2.5 9.9 2.5-11.1 3.4-11c1 0 1.6 6.1 2.6 6.1 1 0.1 1.5 7.1 2.5 7.2 1 0.1 2.1-2.8 3.1-2.8 1 0.1 1.8 2 2.7 2.1 1 0.1 2.8-11.4 3.8-11.4 1 0.1 1.5 5.3 2.5 5.3 1 0.1 1 10.3 2 10.4 1 0.1 2-1.4 3-1.3 1 0.1 2.7-8 3.7-7.9 1 0.1 1 8.9 2 9 1 0.1 2.1-2 3.1-1.8 1 0.1 3.3-11.9 4.3-11.8 1 0.1 1.5 3.7 2.5 3.8 1 0.1 0.5 11 1.5 11.1 1 0.1 2.4-3.9 3.4-3.8 1 0.1 1.5 3.2 2.4 3.3 1 0.1 2.2-1.9 3.2-1.8 1 0.1 2.4-3.2 3.4-3 1 0.1 2.9-6.2 3.9-6 1 0.2 0.7 7.7 1.7 7.9 1 0.2 1 5.6 1.9 5.7 0.9 0.2 3.2-7.2 4.1-7 0.9 0.2 2.2-1.5 3.2-1.3 0.9 0.2 1.3 3.6 2.2 3.8 0.9 0.2 1.3 3.5 2.2 3.7 0.9 0.2 1.5 2 2.5 2.2 0.9 0.2 1.5 1.9 2.5 2.1 0.9 0.2 2.1-0.6 3-0.4 0.9 0.2 3-4.9 4-4.7 0.9 0.2 1.7 1.3 2.6 1.5 0.9 0.2 2.2-1 3.1-0.8 0.9 0.2 1.9 0.5 2.8 0.7 0.9 0.2 2.5-2.2 3.5-2 0.9 0.2-0.4 9.6 0.5 9.8 0.9 0.2 3.1-4.4 4-4.2 0.9 0.2 2.4-1.5 3.3-1.3 0.9 0.2-0.5 9.2 0.4 9.5 0.9 0.3 4.1-7.8 5-7.6 0.9 0.3 0 7 1 7.3 0.9 0.3 1.7 1 2.6 1.3 0.9 0.3 5.8-12.9 6.7-12.6 0.9 0.3 1.4 2.1 2.3 2.4 0.9 0.3 1.6 1.6 2.5 1.9 0.9 0.3 1.9 0.5 2.8 0.8 0.9 0.3 1.4 2 2.3 2.3 0.9 0.3 1.2 2.5 2.1 2.8 0.9 0.3 2 0.2 2.9 0.5 0.9 0.3 1.2 2.5 2.1 2.8 0.9 0.3-0.4 7 0.5 7.3 0.9 0.3 4.6-7.3 5.5-7 0.9 0.3 3.7-4.4 4.6-4 0.9 0.3-3 13.7-2.1 14 0.9 0.3 4.7-7.1 5.6-6.8 0.9 0.3 3.9-4.6 4.7-4.3 0.9 0.3 2.1 0.1 3 0.5 0.9 0.4-3.8 14.9-2.9 15.3 0.9 0.4 7.3-13.1 8.2-12.7 0.9 0.4 1.8 0.7 2.7 1.1 0.9 0.4-3.6 13.5-2.7 13.9 0.9 0.4 5.5-8.1 6.4-7.7 0.9 0.4-2.3 10.2-1.4 10.5 0.9 0.4 2.1-0.2 3 0.2 0.9 0.4 3.3-2.8 4.2-2.4 0.9 0.4 2.6-1 3.4-0.6 0.9 0.4 2 0.3 2.9 0.7 0.9 0.4-1.2 7.1-0.4 7.5 0.9 0.4 7.5-11.2 8.4-10.8 0.9 0.4-1.7 7.9-0.8 8.4 0.9 0.4 1 2.3 1.9 2.7 0.9 0.4 6.7-8.9 7.5-8.5 0.9 0.4-2.4 9-1.6 9.5 0.9 0.4 4.2-3.8 5-3.4 0.9 0.4-0.2 4.5 0.7 4.9 0.8 0.5 4.5-4.2 5.3-3.8 0.8 0.5-4.5 12.2-3.6 12.7 0.8 0.5 8.8-11.9 9.6-11.4 0.8 0.5 1.4 1.6 2.2 2 0.8 0.5-3 9.2-2.2 9.7 0.8 0.5 5.3-5.3 6.1-4.8 0.8 0.5 0.1 3.6 0.9 4.1 0.8 0.5 4.5-3.7 5.3-3.2 0.8 0.5-5.2 12.2-4.4 12.7 0.8 0.5 6.3-6.5 7.1-6 0.8 0.5 0.9 2.2 1.7 2.7 0.8 0.5 0.5 2.9 1.3 3.4s1.4 1.3 2.2 1.9c0.8 0.5 2.8-0.8 3.6-0.3 0.8 0.5 2.5-0.2 3.3 0.3 0.8 0.5 3.5-1.7 4.3-1.2 0.8 0.5-5.2 11-4.4 11.6 0.8 0.5 0.9 2.1 1.6 2.6 0.8 0.6 7.3-7 8.1-6.5 0.8 0.6-1.2 5-0.4 5.5 0.8 0.6 5.8-4.7 6.6-4.1 0.8 0.6-4.4 9.2-3.7 9.8 0.8 0.6 1.9 0.6 2.7 1.2 0.8 0.6 2.3 0.2 3 0.7 0.8 0.6-0.2 3.4 0.5 4 0.8 0.6 3.7-1.6 4.4-1 0.8 0.6 5.5-3.8 6.2-3.2 0.7 0.6 3.8-1.6 4.6-1 0.7 0.6-8.2 12.9-7.4 13.6 0.7 0.6 3.7-1.5 4.4-0.9 0.7 0.6 6.9-5.1 7.6-4.5 0.7 0.6-3.7 7.3-3 7.9 0.7 0.6-1.6 4.7-0.9 5.3 0.7 0.6 9.8-8.1 10.5-7.5 0.7 0.6-4 7.4-3.3 8 0.7 0.6 2.5 0.1 3.2 0.8 0.7 0.7 7.8-5.6 8.5-4.9 0.7 0.7-4.8 7.9-4.1 8.6 0.7 0.7 5.1-2.5 5.7-1.8 0.7 0.7 2.5 0.2 3.2 0.9 0.7 0.7-6.9 9.6-6.2 10.3 0.7 0.7 1.2 1.4 1.9 2.1 0.7 0.7 10.8-7.9 11.5-7.2 0.7 0.7 0.1 2.6 0.8 3.3 0.7 0.7-4.3 6.7-3.6 7.4 0.7 0.7 2.5 0.3 3.2 1 0.7 0.7-0.3 2.8 0.4 3.6 0.6 0.7 0.8 1.8 1.5 2.5 0.6 0.7-1.1 3.5-0.5 4.2 0.6 0.7 6.1-2.8 6.7-2 0.6 0.7 0.8 1.9 1.4 2.6 0.6 0.7 6.4-2.9 7-2.1 0.6 0.7-0.9 3.3-0.3 4.1 0.6 0.7 1.1 1.6 1.7 2.4 0.6 0.7 3 0.1 3.6 0.8 0.6 0.8 0.9 1.8 1.5 2.5 0.6 0.8-7.3 8-6.7 8.8 0.6 0.8 0.3 2.1 0.8 2.9 0.6 0.8 6.1-2.2 6.7-1.4 0.6 0.8 7.3-2.9 7.9-2.2 0.6 0.8-10.3 9.7-9.7 10.5 0.6 0.8 1.4 1.3 2 2.1 0.5 0.8 4.3-0.7 4.8 0.1 0.5 0.8 5.2-1.2 5.7-0.4 0.5 0.8 5.1-1 5.6-0.2s-10.7 9.3-10.2 10.1c0.5 0.8 6.7-2 7.2-1.2s5.7-1.3 6.2-0.5-9.7 8.2-9.2 9c0.5 0.8 14.4-6.4 14.9-5.6 0.5 0.8-6.8 6.3-6.3 7.1 0.5 0.8 8.5-2.7 9-1.8 0.5 0.8-11.3 8.6-10.9 9.4 0.5 0.8 8.8-2.7 9.3-1.8 0.5 0.8 3.4 0.4 3.8 1.3 0.5 0.8-5.2 4.9-4.8 5.8 0.4 0.9 9-2.4 9.4-1.6 0.4 0.9-6.3 5.4-5.9 6.2 0.4 0.9-1.7 3-1.3 3.8 0.4 0.9 4.9-0.2 5.4 0.6 0.4 0.9 1.9 1.2 2.3 2.1 0.4 0.9-5.4 4.5-5 5.4 0.4 0.9-1.3 2.6-0.9 3.5 0.4 0.9 7.1-1 7.5-0.1 0.4 0.9 6.5-0.6 6.9 0.3 0.4 0.9-9.9 6.1-9.6 7 0.4 0.9 3.3 0.7 3.7 1.6 0.3 0.9 5.5 0 5.8 0.9 0.3 0.9-3.6 3.4-3.3 4.3 0.3 0.9 4.5 0.4 4.9 1.3 0.3 0.9-6.4 4.3-6 5.2 0.3 0.9 9.3-1.1 9.6-0.2 0.3 0.9-5.8 3.9-5.5 4.8 0.3 0.9-1 2.3-0.7 3.2 0.3 0.9 10.3-1.1 10.6-0.2 0.3 0.9 2.7 1.3 3 2.2 0.3 0.9-4.1 3.2-3.9 4.2 0.3 0.9-0.9 2.3-0.7 3.2 0.2 0.9-8.2 4.1-8 5 0.2 0.9 9.7-0.5 9.9 0.5 0.2 0.9-2.9 2.7-2.7 3.6 0.2 0.9-5.5 3.2-5.3 4.1 0.2 0.9 11.1-0.5 11.3 0.5 0.2 0.9 2.4 1.5 2.6 2.5 0.2 0.9-7.6 3.5-7.4 4.4 0.2 0.9-1.2 2.1-1 3.1 0.2 0.9-3.6 2.5-3.4 3.5 0.2 0.9 13.2-0.2 13.3 0.7 0.2 0.9-0.7 2.1-0.5 3 0.1 1-2.5 2.3-2.4 3.3 0.1 1-3.9 2.4-3.8 3.4 0.1 1 2 1.7 2.2 2.6 0.1 1-1.4 2.1-1.3 3 0.1 1 8.3 1.1 8.4 2.1 0.1 1-1.6 2.1-1.5 3.1 0.1 1-6.8 2.5-6.7 3.4 0.1 1 9.9 1.3 10 2.2 0.1 1-7.7 2.4-7.7 3.4 0.1 1 4.4 1.7 4.5 2.7 0 1-8 2.2-8 3.2s-2.3 1.9-2.3 2.9 5.2 1.8 5.2 2.8c0.8 0.5 11.1 1.4 11.1 2.4z" fill="#FFFFFF" p-id="698"></path><path d="M486.6 945.5h-0.5c-2.8-0.1-4.8-1.1-6.3-2.5-2.7-0.3-4.6-1.4-6-2.8-2.9 3.4-6.6 3.6-8.5 3.4-4.7-0.4-7.2-3.5-8.5-5.8-1.6 0.8-3.6 1.3-5.9 1-1.2-0.1-3.3-0.6-5.2-2.1-0.4 0.1-0.7 0.1-1.1 0.2-2 2.1-4.8 3.7-8.9 3.1-4.5-0.7-6.8-3.7-8-5.7-0.5-0.4-0.9-0.8-1.2-1.2-0.9-0.6-1.8-1.4-2.6-2.4-0.1 0.1-0.2 0.2-0.3 0.2-1.6 2.1-5.3 6.4-11.4 5.2-3.7-0.7-5.8-3-7.1-5-1.9 1.1-4.4 1.8-7.3 1.1-1.1-0.2-2.1-0.6-2.9-1.1-0.9 0-1.9 0-2.9-0.3-1-0.2-2.6-0.8-4.1-2-1.8 0.3-3.4 0.1-4.6-0.2-0.1 0-0.3-0.1-0.4-0.1-1.6 0.5-3.5 0.7-5.7 0.1-1.7-0.5-7.2-2.6-7.7-10.2-1.4 0.2-3 0.2-4.8-0.3-1-0.3-1.9-0.7-2.7-1.2-0.8 0-1.7-0.1-2.6-0.4-2.5 2.4-5.9 4.3-10.6 2.7-2.5-0.8-4.1-2.2-5.2-3.8-2.8 0.7-5.1 0.1-6.1-0.3-5.2-1.9-6.6-6.5-7-9.2-0.6-0.1-1.2-0.3-1.6-0.4-2.4 1.8-6.2 3.5-10.7 1.6-0.3-0.1-0.7-0.3-1.1-0.5-2.1 0.2-3.8-0.4-4.9-0.8-3-1.3-4.6-3.4-5.4-4.8-1.3-1.3-2.5-3.2-2.8-6-2.8 0.5-5.1-0.3-6.1-0.8-2.6 1.5-6.2 2.7-10.4 0.6-0.7-0.4-1.5-0.9-2.3-1.5-1.2-0.2-2.3-0.6-3.1-1.1-2.7-1.4-6.8-4.8-5-12.6-0.5-0.2-0.9-0.4-1.4-0.7-1.8-1-3-2.3-3.8-3.4-2.1 0.5-4.6 0.3-7.2-1.2-0.8-0.5-1.5-1-2.1-1.6-1-0.2-2-0.6-3.1-1.3-1.8-1.1-3-2.5-3.8-3.9-3 1.9-7.1 3.2-11.5 0.3-1-0.6-3.1-2.3-4.1-5.4-2.7-2-3.8-4.6-4.2-7-1.2-0.3-2.4-0.8-3.7-1.7-1.9 0-4-0.5-6-2-1.3-0.9-4.9-4.2-4-10-0.6-0.5-1.1-0.9-1.5-1.4-1.6-0.1-4.1-0.7-6.3-2.5-1.1-0.9-1.9-1.8-2.4-2.8-0.2 0-0.5-0.1-0.7-0.2-3.2 1.8-8.6 4-13.6-0.3-1.9-1.7-2.9-3.5-3.3-5.4-1.9-0.2-3.9-0.9-5.7-2.7-1.8-1.7-2.7-3.6-3.1-5.2-1.9-0.2-4-1-5.9-2.9-1.8-1.8-2.7-3.9-3.1-5.2-0.4-0.7-0.8-1.6-1-2.5-1.3-0.6-2.2-1.4-2.8-2-0.1 0-0.1-0.1-0.2-0.1-0.6-0.4-1.5-1.1-2.4-2.1-2.1-2.2-2.8-4.7-2.8-6.9-2.8 0.2-5.7-0.5-8.3-3.5-0.7-0.8-1.6-2.1-2.1-3.8-0.5-0.5-1-0.9-1.3-1.3-1.2-1.5-2.6-3.9-2.4-7-0.5-0.4-0.9-0.9-1.4-1.4l-0.2-0.2c-0.5-0.5-1.2-1.2-1.9-2.1-0.4-0.5-1-1.4-1.5-2.7-1.8-0.5-3.6-1.7-5.1-3.7-0.6-0.8-1.1-1.7-1.4-2.5-0.8-0.6-1.5-1.4-2.2-2.4l-0.9-1.5c-1.2-0.7-2.2-1.7-3.2-3.1-0.5-0.7-1.4-2.3-1.7-4.4l-0.9-1.2c-3.3-5-1.3-9.5 1.1-12.8-0.2-0.4-0.3-0.8-0.5-1.2-1.9-0.7-3.8-2-5.2-4.5-1.1-1.9-1.5-3.7-1.4-5.3-6.3 0.5-9.2-3.5-10.2-5.4-0.8-1.6-1.2-3.1-1.2-4.5-0.3-0.4-0.5-0.8-0.8-1.3-0.8-1.5-1.1-3-1.1-4.3-2.5-0.7-4.9-2.3-6.3-5.5-0.1-0.1-0.2-0.3-0.2-0.4-0.3-0.6-0.8-1.4-1.2-2.4-1.6-3.7-0.7-7 0-8.8 0.2-1.4 0.6-3 1.7-4.5 0-0.1-0.1-0.2-0.1-0.4-0.8-2-0.9-3.8-0.8-5v-0.1c-2.5-0.5-7.3-1.9-9.1-7.3-0.9-2.8-0.5-5.2-0.1-6.8 0-2.1 0.8-3.9 1.8-5.4-3.7-0.5-8.2-2.1-9.7-7.8-1.4-5.3 1.6-9 3.5-10.9 0.3-0.8 0.7-1.4 1.1-1.9-0.6-1-1.1-2.1-1.3-3.5-0.2-1.1-0.3-2.2-0.2-3.2-2.9-1.2-5.7-3.4-6.4-7.9-0.3-1.9-0.3-4.8 1.7-7.5-2.1-1.5-4.1-3.8-4.5-7.5-0.3-3.1 0.6-5.5 2-7.2-2.4-1.5-4.3-3.9-4.5-7.9v-2.2-0.9c-0.1-1.7 0.2-7.1 6.5-10.1 0.2-0.6 0.5-1.3 0.9-1.9-0.8-1-1.4-2.3-1.8-3.8-4-2.8-4.4-6.8-4.4-8.7 0.1-1.6 0.4-2.9 1-4.1-1-2-1-4-0.9-5.1 0.1-1.4 0.8-5.3 4.7-7.8-0.3-1-0.4-2.2-0.3-3.5-0.8-1.6-1.7-3.9-1.3-6.9 0.2-1.5 1-4.3 3.5-6.4 0-0.7 0-1.5 0.2-2.3 0.1-0.7 0.4-1.7 0.9-2.8-0.8-1.7-1.3-3.9-0.8-6.5 0.2-0.8 0.5-2 1.2-3.3 0-1.1 0.1-2 0.2-2.6 0.4-1.6 1-2.9 1.7-3.9-2.5-3.2-2.3-6.5-1.7-8.7 0.4-1.5 1.5-4.3 4.5-6.1-0.3-1.5-0.3-3.3 0.3-5.3 1.5-4.9 5.7-6.6 7.8-7.3 0.1 0 0.1-0.1 0.2-0.1-2.9-3.9-2-7.8-1.3-9.6 0.7-1.8 1.6-3.1 2.7-4-1.5-3.2-0.8-6.1 0-8 0.7-1.5 2.3-4.4 5.9-5.6 0.2-0.6 0.4-1.1 0.6-1.5 0.8-1.7 1.9-2.9 2.5-3.7 1.4-2.2 3.3-3.4 5-4.1 2-3.1 5-4.2 6.9-4.7 0.3-0.2 0.6-0.3 0.9-0.4-0.1-0.3-0.3-0.7-0.4-1-1.2-1.5-3.4-4.5-3.5-8.2-0.6-2-1.1-5.5 1-9.1 0.6-1 1.5-2.2 2.8-3.1 0.3-0.7 0.6-1.3 0.9-1.8 2.4-3.9 6-4.8 9.1-4.8 0-1.8 0.4-3.9 1.8-6 0.1-0.1 0.1-0.2 0.2-0.3 0.1-1.5 0.6-3.6 2.1-5.7 0.7-1 2.8-3.4 6.4-4.1 0.3-2.1 1.3-3.8 2-4.7 0.4-0.5 0.9-1.1 1.6-1.7-0.2-3.2 1.3-5.6 2.3-6.7 1.9-2.4 4.3-3.4 6.5-3.8 0.2-1.2 0.7-2.5 1.6-3.7-0.3-3.4 1.2-5.9 2.6-7.4 2-2.3 4.3-3.2 6.5-3.4 0.4-1.4 1.2-3.1 2.7-4.6 0.3-0.3 0.7-0.7 1.1-1 0.6-1.7 1.6-3 2.5-3.9 1.2-1.2 3.8-3.3 7.7-3 0-2.4 0.7-5 3.2-7.4 1.2-1.1 3.6-2.9 7.2-2.8-0.2-4.4 2.4-7.1 3.5-8 0.6-0.6 1.3-1 1.7-1.4 0.2-0.2 0.4-0.3 0.6-0.5 0.8-0.6 2-1.6 3.8-2.1 0.5-0.6 1-1 1.3-1.3 4.1-3.4 8.4-2.6 11.5-1.1 0.6-0.2 1.3-0.4 2-0.4-0.5-3.3-0.1-7.3 3.9-10.3 2.7-2 5.5-2.3 7.8-1.9 0.4-3.6 2.6-5.8 4.3-6.9 0.9-0.6 2.1-1.3 3.6-1.6 1-2 2.5-3.3 3.5-4 1-0.7 3.8-2.2 7.4-1.5 0.6-0.6 1.2-1 1.5-1.2 0.7-0.4 1.3-0.7 1.9-1 0.9-3.2 3.1-4.9 4.5-5.7 1.5-0.9 3-1.3 3.8-1.6 1.2-0.6 2.4-0.8 3.5-0.9 0.8-1 1.9-2.1 3.4-2.9 1.1-0.6 3-1.4 5.4-1.3 1-1.1 2.1-1.8 2.8-2.2 2.4-1.3 4.8-1.4 6.3-1.3 0.6-0.6 1.4-1.1 2.3-1.5 3.2-1.6 6-1.4 8.4-0.4-1-7.5 3.6-10.5 5.7-11.5 3.9-1.8 7.3-0.9 9.7 0.4 1.1-0.2 2.2-0.2 3.2 0 0.8-0.7 1.7-1.3 2.8-1.8 0.6-0.3 1.2-0.5 1.8-0.6 0.9-0.9 2-1.7 3.4-2.3 0.4-0.2 1-0.4 1.7-0.5 0.9-2.2 2.6-4.1 5.6-5.3 2.9-1.1 5.4-0.9 7.5 0 0.7-2.2 2-3.7 3.4-4.7 0.9-1.1 2.6-2.7 5.1-3.6 2-0.7 5.3-1.2 8.5 0.9 0.3 0 0.6-0.1 0.9-0.1 1.1-0.8 2.2-1.3 3-1.5 0.7-0.2 2.2-0.6 4-0.4 1.4-3.8 4.4-5.3 6.5-6 2.9-0.9 5.4-0.3 6.9 0.1 2.2 0.2 4.9 1.1 7.3 4.1 0.4-1 1-2 1.9-3 1-1.9 3.1-5.1 7.4-6.1 1.7-0.4 3.2-0.4 4.4-0.2 0.5-0.2 1-0.3 1.5-0.5 1.2-0.3 4.2-0.7 7.3 1.1 1.9-3.8 5.3-5 7-5.3 1.3-0.3 2.4-0.3 3.5-0.2 1.2-1.2 2.9-2.1 5.1-2.5 1.2-0.2 2.7-0.3 4.4 0.1 0.6-0.2 1.2-0.3 1.6-0.4 4.9-0.8 8.3 1.8 10.2 4 1.3-1.1 3-1.9 5.1-2.2 0.6-0.1 1.1-0.1 1.7-0.1 1.1-0.7 2.5-1.2 4.1-1.4h0.4c2-1.7 4.3-2.1 5.3-2.3 1.8-0.2 3.3 0 4.7 0.5 1.2-0.7 2.5-1.2 4.2-1.3 1.1-0.1 2.1-0.1 3 0.1 0.9-0.3 1.8-0.5 2.9-0.6 0.7-0.1 1.4-0.1 2.1 0 1.1-0.5 2.3-0.9 3.8-1 1.8-0.1 3.3 0.1 4.6 0.6 1.5-1.8 3.8-3.3 7.1-3.4 2.1-0.1 3.8 0.3 5.2 1 0.4-0.2 0.9-0.3 1.4-0.5 1.1-0.6 3-1.4 5.3-1.5 2.7-0.1 4.8 0.8 6.4 2 1.4-0.9 3.3-1.6 5.5-1.6 0.5 0 0.9 0 1.3 0.1 1.3-0.6 2.8-1 4.6-1 4.1 0 6.7 2 8.3 4.4 2.6-2 5.4-2.2 6.6-2.2 0.5 0 1.3 0.1 2.1 0.3 1.5-0.5 3-0.6 3.9-0.6 0.2 0 0.4 0 0.7 0.1 2.1-1.1 4.1-1.2 5.3-1.2 3.5 0.2 5.8 1.8 7.4 3.7 2.7-2.5 5.9-2.6 7.5-2.5 5 0.4 7.6 3.7 8.9 6.6 0.7-0.1 1.4-0.1 2.3 0 3.2-4.7 7.6-4.8 9.7-4.6 5.5 0.7 7.9 4.9 8.9 7.2 0.4 0.5 0.8 1 1.1 1.5 2-2.9 5.2-5.9 10.6-5 3.9 0.6 6.1 2.8 7.4 5.4 1.1-0.2 2.4-0.2 3.8 0 5.2 1 7.4 5 8.3 7.4 0.2 0.3 0.4 0.6 0.6 0.8 2-1.3 4.5-2.1 7.7-1.4 0.7 0.2 1.3 0.4 1.9 0.6 0.8-0.1 1.8-0.1 2.7 0 1.9-1 4.5-1.8 7.6-1 1.1 0.3 3.9 1.2 5.9 4 0.7 0 1.4 0.1 2.2 0.3 0.7 0.2 1.9 0.6 3.2 1.5 0.5 0 1.1 0.1 1.7 0.2 3.9-4.9 8.5-4.6 11.1-3.8 3 0.9 4.8 2.8 5.9 4.1 0.3 0.2 0.6 0.5 0.9 0.7 0.3 0.1 0.7 0.2 1 0.3 2.9 0.9 4.8 2.8 5.8 4.2 0.6 0.5 1.1 1 1.5 1.4 0.1 0 0.2 0.1 0.3 0.1 0.9 0.3 1.7 0.7 2.4 1.2 2.4-2 6-3.7 10.5-2.1 1.1 0.4 2.6 1.1 3.8 2.4 1.1-0.1 2.2 0 3.4 0.3 1 0.1 2.5 0.2 4.2 0.9 1 0.4 2.2 1 3.3 2 0.8 0.2 1.5 0.4 2.1 0.6 0.9 0.4 1.9 0.8 2.8 1.1 2.2 0.9 5.3 3 6.1 7.6 1.4 1.1 2.9 2.8 3.6 5.6 0.8 0.1 1.6 0.2 2.4 0.5 0.1 0 0.3 0 0.5 0.1 4.9-4.7 9.8-3.2 11.8-2.2 1 0.5 1.9 1.1 2.6 1.7 2.7-0.4 4.9 0.4 6.1 1 1.1 0.6 4 2.4 5.1 6.1 1.4 0 2.9 0.4 4.5 1.3h0.1c2.5-0.3 4.6 0.5 6 1.3 1.7 0.9 2.8 2.1 3.4 2.8 1.5 1.1 2.5 2.4 3.1 3.7 1.9-0.2 4 0.2 6.2 1.5 1.7 1 4.8 3.5 4.8 8.4 1.2 1.2 1.9 2.5 2.4 3.5 0.3 0.4 0.6 0.8 0.8 1.2 0.1 0 0.2 0 0.3 0.1h0.5c2.4-1 6.6-2.1 10.8 0.8 1.4 1 3.9 3.2 4.3 7.1 0.1 0.1 0.3 0.1 0.4 0.2 2.2-0.3 4.6 0.2 7 2 1.3 1 4.9 4.2 4 10.1 0.8-0.3 1.7-0.5 2.6-0.5 2.3-0.9 7.2-2.3 11.7 1.3 1.6 1.3 3.7 3.8 3.7 7.5 0.4 0.2 0.7 0.5 1.1 0.8 1.3 1.2 2.2 2.4 2.8 3.7 1.8 0.5 3.2 1.5 4 2.2 0.5 0.4 0.9 0.9 1.3 1.3 3.8-0.1 6.4 1.9 7.3 2.7 0.9 0.8 2.8 3 3.2 6.4 0.6 0.4 1.2 0.9 1.8 1.5 0.5 0.5 1.3 1.4 1.9 2.5 2.7 0.4 4.6 2 5.5 3 2.3 2.3 2.9 5.1 3.1 6.8 1.1 2.9 0.5 5.9-0.5 8.3 0.3 0.6 0.4 1.3 0.6 1.9 0.9 0.2 1.8 0.5 2.6 0.9 3.4-1 8-1.2 11.5 3.1 1.4 1.6 2 3.4 2.3 5 1 0.6 2 1.4 2.8 2.5 0.9 1.2 1.5 2.3 1.8 3l0.1 0.1c0.5 0.8 1.2 2.1 1.6 3.8 2.5 0.2 5 1.3 7 4.1 1.2 1.7 2.5 4.5 1.7 8 2.4 0.4 5 1.6 6.9 4.5 1 1.5 2 3.8 1.7 6.6 0.3 0.3 0.6 0.6 0.8 0.9 3.6 0.6 5.6 3 6.6 4.7 0.4 0.6 1 1.8 1.3 3.4 0.5 0.6 1.1 1.3 1.5 2.1 0.9 1.6 1.9 4.2 1.1 7.2 0.4 0.5 0.8 1 1.1 1.6 2.9 1.3 4.4 3.6 4.9 4.7 2.2 4.3 1 7.9-0.9 10.7 0.6 0.7 1.1 1.5 1.6 2.5 0.5 1.1 0.8 2.2 0.9 3.3 2.9 0.6 6 2.1 7.7 6.2 0.7 1.6 1.6 5-0.4 8.7 0.2 0.3 0.3 0.7 0.5 1.1 0.5 1.4 0.7 2.7 0.7 3.9 0.3 0.6 0.7 1.2 0.9 2 0 0.1 0 0.1 0.1 0.2 2.3 1.7 3.3 4 3.6 5 0.3 1 0.5 1.9 0.6 2.7 0.4 0.3 0.7 0.5 1 0.8 1.8 0.9 4.7 2.9 5.9 6.9 1.5 5.1-1.1 8.8-3.3 11 0.5 0.9 0.7 1.8 0.9 2.3 0.3 1.1 0.4 2.1 0.3 3 0.4 0.3 0.7 0.6 1 1 1.6 1.1 4 3.3 4.8 7.1 0.6 2.8 0.1 5-0.9 6.8 1.7 1.9 2.3 4 2.5 5.3 0.4 2.4-0.1 4.3-0.4 5.5-0.1 2-0.9 3.6-1.7 5 2.4 1.4 4.3 3.7 4.7 7.6 0.1 1.3 0 2.5-0.3 3.6 1.6 2.2 1.9 4.4 2 5.5 0.2 3.8-1.3 6.3-3.3 8.1-0.1 0.3-0.1 0.7-0.2 1.1 5.2 2.7 5.7 7.5 5.7 9.1 0 2.7-1 4.8-2.2 6.4 1 1.5 1.6 3.5 1.5 5.9-0.1 1.7-0.5 3.9-2.2 5.9 1 1.6 1.7 3.7 1.5 6.3-0.2 2.3-1 4.1-2.1 5.5v0.5c-0.3 3.3-2 5.5-3.8 7 2.9 3.2 2.6 6.9 2.4 8.3-0.2 1.4-0.9 4-3.2 6-0.4 2.1-1.3 3.7-2.4 4.9 1.6 2.9 1.2 5.8 0.9 6.9-0.5 2.3-1.7 4-2.5 5-0.8 1.6-1.8 2.7-3 3.6 1.9 2.3 3.3 5.4 2.1 9.4-0.5 1.9-1.5 3.3-2.1 4.1-0.4 0.9-0.9 1.7-1.5 2.3 0.4 2 0 3.8-0.4 5.1-0.3 0.9-0.8 2.1-1.8 3.3 0.5 2.5-0.1 4.7-0.4 5.6-0.1 0.2-0.2 0.5-0.2 0.8-0.2 0.6-0.4 1.3-0.7 2.2-0.4 0.9-0.9 2-1.8 3.1-0.1 1-0.4 1.8-0.7 2.5-1.9 4.7-5.5 6.1-9 6.3-0.2 0.2-0.4 0.5-0.7 0.7 0.2 0.4 0.4 0.9 0.6 1.4 1.4 2.1 3.8 6.5 1.3 11.5-0.3 0.6-0.6 1.1-0.9 1.7-0.2 0.3-0.4 0.7-0.5 1-1.1 2.2-3.4 5.2-8.3 5.5-0.1 0.1-0.1 0.2-0.2 0.4-0.3 0.7-1.1 1.9-2.5 3-0.2 0.6-0.5 1.3-0.9 2-1.1 2-2.6 3.3-4.2 4.1 1 2.2 2.3 6.4-0.4 10.7-0.1 0.1-0.2 0.3-0.3 0.4-0.1 1.7-0.5 3.6-1.7 5.5-1.3 2.1-3 3.2-4 3.9-0.2 0.2-0.5 0.4-0.7 0.6 0 1.8-0.5 3.7-1.9 5.7-2.7 3.9-6.6 4.5-9.3 4.5-0.1 2.7-1.3 4.8-2.1 5.9-2.3 3-5.3 4-8 4 0.2 3.5-1.5 6.1-2.3 7-2.6 3.1-5.6 3.8-8.4 3.6-0.3 0.2-0.7 0.5-1 0.7 0.3 1.8 0.3 4.1-0.7 6.3-0.3 1.5-1 3.8-2.9 5.9-0.8 0.9-1.7 1.6-2.6 2.1-0.3 1.8-1.1 3.6-2.8 5.3-0.5 0.5-1 1-1.6 1.3-0.5 1.1-1.2 2.3-2.3 3.3-1.1 1.1-2.3 1.8-3.5 2.3-0.7 2.2-2.1 3.7-2.7 4.3-3.8 3.6-7.9 3.1-11.2 1.8 0.5 4.9-2.3 7.8-3.5 8.8-0.9 0.7-3 2.3-6.1 2.4-0.9 0.7-1.8 1.2-2.7 1.6 0.4 3.1-0.4 6.4-3.8 9.1-1.9 1.5-3.8 2.1-5.6 2.2-0.6 0.7-1.3 1.5-2.4 2.3-1 0.8-4 2.6-7.9 1.8-0.7 1.2-1.7 2.3-3.1 3.3-0.2 0.1-0.4 0.3-0.7 0.4-0.2 2.7-1.3 5.7-4.5 7.9-1.1 0.8-4.4 2.6-8.6 1.3-0.5 2.2-1.8 4.4-4.5 6.1-2.9 1.8-5.9 1.8-8 1.4-0.4 0.3-0.8 0.6-1.2 0.8-0.2 0.1-0.3 0.2-0.5 0.3-0.3 2.9-1.5 5.9-5.1 7.9-1.5 0.9-4.7 2.1-8.4 0.7-0.8 1-1.9 2-3.3 2.8-1.1 0.6-3.1 1.4-5.4 1.2-0.8 2-2.3 3.8-4.8 5-0.5 0.3-1.3 0.6-2.2 0.8-1.1 1.1-2.2 1.8-3 2.2-2 1-3.9 1.2-5.1 1.2-2 0.5-3.9 0.3-5.4-0.1-1 4.1-4.1 5.9-5.7 6.6-1.9 0.8-3.7 1-5.3 0.8-0.2 0.1-0.5 0.2-0.7 0.3-3.2 1.4-6.2 0.8-8 0.3-1.6-0.1-3-0.6-4.2-1.2-0.9 1.9-2.5 3.6-5.1 4.7-0.1 0-0.1 0.1-0.2 0.1-0.6 0.4-1.6 0.9-2.8 1.3-0.5 0.2-0.9 0.3-1.4 0.4-0.9 2.3-2.7 4.4-6 5.6-1.9 0.7-5 1.2-8.1-0.6-1.7 3.5-4.8 4.8-6.1 5.2-3.1 1-5.7 0.5-7.8-0.7-1.1 1-2.4 1.8-4.2 2.3-3 0.9-5.4 0.4-7.4-0.7-1.1 1-2.5 1.9-4.4 2.4-1.1 0.3-2.2 0.4-3.1 0.4-0.8 0.4-1.6 0.8-2.6 1-0.3 0.1-0.6 0.1-1 0.2-1.2 2.4-3.2 4.6-6.9 5.5-1.2 0.3-3.3 0.5-5.7-0.3-1.3 1.6-3.1 2.9-5.9 3.5-0.9 0.2-2.4 0.4-4 0-1.2 1-2.7 1.7-4.7 2.1-2.2 0.4-5.7 0.4-8.8-2.5-1.3 0.8-2.7 1.1-3.6 1.3-1.4 0.2-5.4 0.5-8.8-2.8-0.9 0-1.8-0.2-2.5-0.5-0.8 1-1.7 1.9-3 2.5-1.5 6.3-6 7.8-8.8 8.1-2.5 0.3-6.5-0.1-9.4-4.3h-0.3c-1.4 2.5-3.9 5-8.2 5.4-1.9 0.2-5.8 0-8.8-3.8-1.9 1.7-4.1 2.3-5.6 2.5h-0.1c-0.8 0.2-2 0.5-3.6 0.6-2 0.1-3.6-0.3-4.7-0.7-1.2 0.5-2.6 0.9-4.2 1-1.2 0-3.3-0.1-5.4-1.3-1 0.4-2.2 0.6-3.6 0.6-1.6 0-6-0.3-8.8-4.9-0.6 0-1.2 0-1.8-0.1-0.5 0.4-1.1 0.9-1.7 1.2-1.5 1.5-4.3 3.8-8.5 3.7-1.1 0-2.1-0.2-3-0.5-0.9 0.2-1.9 0.3-2.9 0.3-0.3 0-0.7 0-1.2-0.1-2.5 2.5-5.5 3-7.4 3z m56.2-3c-0.1 0-0.1 0 0 0-0.1 0-0.1 0 0 0z m-82-3.3c0.6 0.2 1.2 0.3 1.8 0.4-0.3-0.1-1-0.2-1.8-0.4z m99.6-0.9h-0.1 0.1z m-130-3.7z m-0.8-0.2c0.2 0.1 0.5 0.1 0.7 0.2-0.1 0-0.4-0.1-0.7-0.2z m-10.1-5.7z m53.7-10.1s0.1 0 0 0c0.1 0 0 0 0 0z m22.2-5.1c2 0.5 4.6 1.8 6.5 5 0.6-0.4 1.3-0.7 2-0.9 1.2-0.7 3.1-1.6 5.5-1.8 0.9-0.7 2-1.4 3.3-1.8 1.2-0.7 3.2-1.6 5.9-1.7 0.5 0 1.4 0 2.5 0.3 1.5-1.1 3.4-1.9 5.8-2 2-0.1 6.3 0.4 9.1 5.1 2.4-3.6 6-4.3 7.8-4.4 1.5-0.1 2.8 0.1 3.5 0.2 1.5 0 2.7 0.2 3.5 0.4 1.3 0.1 2.4 0.3 3.1 0.5 1.4 0.1 3.1 0.5 4.8 1.7 0.3-0.1 0.7-0.2 1.1-0.3 1.2-2.8 3.6-6.5 8.8-7 2.1-0.2 4.6 0 6.8 1.6h1.3c1.3-1.1 3.2-2.3 5.8-2.7 1.5-0.2 2.8-0.1 3.6-0.1 1.6-0.1 2.9 0.1 4.1 0.5 2-2.3 4.5-3 5.9-3.3 1.7-0.3 3.2-0.2 4.5 0.2 0.4-0.1 0.7-0.2 1.1-0.3 1.8-0.3 4.6-0.4 7.2 1.3 0.5-0.2 1-0.3 1.5-0.4 1.1-0.2 3.1-0.4 5.2 0.3 1.2-1.5 3-2.8 5.6-3.4 2-0.4 6.4-0.8 10 3.4 0.1 0 0.2 0 0.3-0.1 1.1-1 2.5-1.9 4.4-2.3 1.2-0.3 2.3-0.4 3.3-0.3 1.1-2.4 3-4.8 6.7-5.8 3-0.9 5.5-0.4 7.5 0.8 0.4-0.2 0.9-0.4 1.3-0.5 0.5-0.2 1-0.3 1.5-0.4 0.5-2.9 2-7.4 7.3-9.1 1.2-0.4 2.3-0.6 3.3-0.5 0.6-0.4 1.3-0.7 2-0.9 2.6-0.9 7.2-1.4 11.3 3.4 0.9-2.2 2.6-4.3 5.7-5.5 3.2-1.2 6-0.7 7.8-0.1 0.9 0 1.6 0.2 2.3 0.3 1.5-0.5 2.9-0.6 4.2-0.4 0.1-4.4 2.3-6.9 4.2-8.3 1.2-4 4.3-5.8 5.5-6.3 1.5-0.7 4.6-1.7 8.1-0.2 1.1-1.1 2.2-1.8 3-2.2 0.9-0.4 2.2-0.9 3.9-1 0.7-2.2 2.1-4.4 5-5.9 2-1.1 5.4-2.1 9.3 0 0.6-0.6 1.4-1.2 2.4-1.8 0.4-4.9 3.7-7.3 5-8 0.7-0.4 1.8-0.9 3.1-1.2 0.6-0.6 1.3-1.1 1.8-1.4 1.9-1.1 6.4-3 11.7 0.8 0.4-0.3 0.8-0.7 1.3-1 0.2-0.1 0.3-0.2 0.5-0.3 0.7-1.4 1.8-2.8 3.5-3.9 0.4-0.3 1.2-0.7 2.2-1.1 0.6-1.8 1.8-3.5 3.9-5 2.2-1.5 4.3-2 6.2-1.9 0.7-1.3 1.7-2.7 3.3-3.9 2.5-1.8 4.9-2.3 7.1-2 0.3-0.3 0.7-0.7 1.1-1 0.5-0.4 1-0.7 1.4-1 0.9-1.5 2-2.6 2.6-3 0.4-0.3 0.8-0.6 1.2-1 0.3-0.2 0.7-0.5 1-0.8 0.1-0.1 0.2-0.2 0.3-0.2-0.2-2.8 0.6-5.7 3.6-8.2 0.5-0.4 1.2-0.9 2.1-1.4 0.4-0.6 0.8-1.1 1.2-1.5 0.5-0.7 1.3-1.9 2.5-3 3.2-2.8 6.6-2.9 9.4-2.2 0.5-0.3 1-0.5 1.4-0.6 0.7-1.7 1.8-2.8 2.3-3.4 2.7-2.6 5.7-3 8.1-2.9l0.2-0.2c-0.5-2.6-0.4-6.4 2.7-9.6 1.1-1.2 2.3-2 3.5-2.5 0-2.2 0.6-4.7 2.6-7 1.5-1.6 3.1-2.5 4.7-3.1 0.1-0.3 0.3-0.6 0.5-1-0.5-3.8 1.2-6.5 2.1-7.6 0.1-0.1 0.1-0.2 0.2-0.3 0.3-0.5 0.8-1.3 1.5-2.2 1.4-1.8 3.1-2.8 4.8-3.3 0.2-2.4 1.3-4.2 2-5.2 3.5-4.6 8.3-4.5 12-3.4-0.3-2.2 0-4.7 1.7-7.2 0.8-1.2 3.5-4.5 8.6-4.5h0.2c-2.4-2.4-7.9-8-3.8-15 1.4-2.5 3.3-3.8 5.3-4.5 0.2-0.5 0.4-1 0.7-1.5 0.3-0.5 0.7-1.2 1.5-2.1-0.2-1.8 0-3.7 1.1-5.8 1-1.9 2.9-4.5 6.7-5.2l0.3-1.5c-0.9-2.2-1.2-4.9 0.2-7.9 0.4-0.8 1.3-2.6 3.1-4-0.7-2.5-0.2-4.7 0.4-6.3 0.6-1.6 1.9-3.7 4.3-5.1-0.2-1.4-0.1-3 0.5-4.7 0.1-0.3 0.2-0.6 0.4-0.9-0.2-1.8 0.1-3.3 0.5-4.5 1.1-3.3 3.1-5.2 5.4-6.1-0.8-1.8-1.1-4-0.4-6.5 0.3-1.3 1.6-4.8 5.6-6.6-1.5-1.8-3.5-5-2.6-9.4 0.5-2.5 1.7-4.3 3.1-5.6 0-0.9 0-1.7 0.1-2.1 0.2-1.4 1-4 3.4-6 0.3-1.2 0.8-2.3 1.4-3.2 0-0.4 0-0.8 0.1-1.2 0.4-3 1.8-5 3.4-6.5-6.6-2.8-7.1-8-6.9-10.3 0-0.6 0.1-1.2 0.1-1.8v-0.9c0.1-2.8 1.4-7.2 7.3-9.2-2.9-1.3-7-4.1-7.1-9.8-0.1-4.1 2.1-6.9 3.6-8.4 0.3-0.5 0.7-1 1.1-1.4-0.9-1.7-1.1-3.3-1.2-4-0.1-1.9 0.2-3.5 0.8-4.9-0.4-1-0.8-2.1-0.9-3.4-0.1-0.9-0.1-1.7 0-2.4-0.4-0.9-0.7-1.9-0.8-3-0.1-0.8-0.1-1.6-0.1-2.3-4.9-1.8-6.2-5.8-6.5-7.8-0.5-3.2 0.4-5.7 1.7-7.6-2.4-1.9-3.3-4.4-3.6-5.8-0.4-1.6-0.3-3-0.1-4.3-1.1-1.5-1.6-2.9-1.8-3.6-0.4-1.4-1-5.5 2.2-9.2-2-1.7-2.8-3.7-3.1-4.7-0.3-1.1-0.5-2.2-0.5-3.1-1.2-1-2.2-2.5-2.9-4.4-1-2.9-0.7-5.3 0.2-7.3-1.9-1-3.9-2.6-5-5.5-0.2-0.5-0.5-1.3-0.6-2.2-1.6-0.9-3.1-2.4-4.1-4.7-1.6-3.6-0.7-6.9 0-8.8-0.6-0.7-1.2-1.5-1.7-2.5-1.1-2.3-1.2-4.5-0.9-6.3-0.4-0.5-0.7-1-1.1-1.6-5.2-0.4-7.6-3.9-8.3-5.2-0.6-1.1-1.3-2.7-1.3-4.6-2.6-0.9-4.3-2.8-5.2-4.3-0.5-0.9-1.3-2.4-1.4-4.3-1-0.7-1.8-1.6-2.6-2.8-0.9-1.3-1.8-3.3-1.7-5.8-1.3-0.6-2.6-1.5-3.7-2.9-0.6-0.5-1.5-1.4-2.3-2.6-0.7-1-1.4-2.3-1.8-4-1-0.6-2-1.5-3-2.7-1.5-2-2-4.1-2.2-5.4-0.9-2.4-1.3-5.9 1.5-10-1.1-0.1-2.3-0.4-3.4-1-3.3 0.9-7.6 0.9-11-3-2.7-3-2.8-6.4-2.5-8.9-0.1-0.3-0.3-0.6-0.4-0.8-0.5-0.4-1-0.8-1.5-1.3-0.1-0.1-0.2-0.2-0.3-0.4-3.9 0.5-6.7-1.4-8.2-3-0.6-0.6-1.1-1.2-1.4-1.6-0.1-0.2-0.3-0.3-0.4-0.5-1.3-1.3-3.8-4.5-2.7-9.3-0.5-0.5-0.9-1-1.3-1.4-1-0.2-2.3-0.5-3.6-1.1-4.7 1.4-8.1-0.8-9.5-2.1-1.9-1.7-2.9-3.6-3.3-5.5-1.5-0.3-3.1-1-4.6-2.2-1.4-1.2-3.2-3.2-3.6-6.3-1.3-0.3-2.7-0.9-4-2-1.6-1.3-2.6-2.7-3.2-4.2-0.8-0.3-1.8-0.8-2.8-1.6-0.6-0.4-1.7-1.4-2.6-2.9-3.8 0.8-6.7-0.9-7.8-1.6-2.2-1.5-3.3-3.5-3.9-4.8-1.2-1.6-2.2-3.8-2-7-0.7-0.3-1.5-0.6-2.2-1.1-0.8-0.5-1.5-1.1-2-1.5-4.8 2.5-8.8 0.5-10.1-0.3-1.5-0.9-4.3-3.2-4.7-7.5-1-0.2-2-0.6-3.1-1.2 0 0-0.1 0-0.1-0.1-3.9 2-7.3 0.9-9.3-0.2-1.8-1-5.5-3.7-5.2-9.5-0.6-0.2-1.2-0.4-1.9-0.7-2.6 0.4-4.7-0.4-5.9-1-0.2-0.1-0.3-0.2-0.4-0.2-3.6 1.8-6.8 1-8.8 0-2.3-1.1-3.7-2.5-4.6-4.2-0.9 0.1-1.9 0.1-2.9-0.1-1.3 0-3.3 0-5.4-1-0.7-0.3-2-1-3.3-2.3-0.7-0.2-1.2-0.4-1.6-0.5-0.8-0.3-1.8-0.9-2.7-1.6-2.1 0.4-4-0.1-5.4-0.6-1.5-0.6-3.6-1.8-4.9-4-1.6 0.3-3.3 0.1-5.2-0.6-1.1-0.4-2.5-1.1-3.7-2.3-1.3 0.1-2.6-0.1-4.1-0.6-6-2.1-6.9-7.5-7-11.2-1.8-1-3.1-2.3-3.9-3.5-4.1 7.8-9.8 7.5-12.8 6.7-1-0.3-1.9-0.7-2.5-1-1.7 0.6-3.6 0.7-5.9 0.1-1.1-0.3-3.5-1.2-5.4-3.6-0.7 0-1.4-0.1-2.2-0.3-4.3-1.1-6.3-3.9-7.2-6.9-1.6 1.4-3.7 2.5-6.4 2.6-1.2 0.3-3.2 0.6-5.5 0.2-3.1-0.6-5.1-2.4-6.2-3.6-0.9-0.6-1.6-1.2-2.2-1.8-1.9 1.6-4.5 2.6-8 2-3.2-0.6-5.3-2.3-6.6-4.2-1.7 1-4.1 1.9-7.1 1.4-0.2 0-0.4-0.1-0.6-0.1-1.4 0.6-3.1 0.9-5.1 0.6-1.2-0.2-3.4-0.7-5.3-2.3-1.5 0.7-3.5 1.3-5.8 1-0.6-0.1-1.6-0.2-2.8-0.7-1.4 0.6-3.3 1.2-5.6 1-1.4-0.1-5-0.8-7.4-4.4h-0.6c-0.3 0-0.6-0.1-0.9-0.1-1.3 0.6-3 0.9-4.8 0.8-2.7-0.2-4.6-1.1-6.1-2.4-0.8 0.1-1.6 0.2-2.1 0.1-2.2 1.4-4.5 1.6-5.8 1.6-1.1 0-3-0.3-4.9-1.4h-0.7c-1.4 0.9-3.2 1.6-5.5 1.6h-0.1c-4.3 0-6.9-2.3-8.5-4.8-0.6 0-1.1 0-1.6-0.1-1.6 1.5-3.7 2.6-6.7 2.7-4.3 0.1-7.1-2.1-8.7-4.5-0.8 0.2-1.7 0.4-2.7 0.5h-1c-0.6 0-1.2 0.1-1.8 0.1-1.5 2.4-4 4.8-8.2 5-2.2 0.1-4-0.4-5.2-0.8-1.3-0.2-2.5-0.6-3.4-1.2-1.4 1.1-3.1 2-5.5 2.2-2.4 0.2-4.3-0.3-5.9-1.1h-0.4c-2.3 3.9-6.1 4.7-7.5 4.9-0.6 0.1-1.2 0.1-1.7 0.1-1 0.6-2.3 1-3.8 1.2-2.2 0.3-4.1 0-5.6-0.8-1.2 1-3 2.1-5.4 2.5-1.2 0.2-2.4 0.2-3.4 0-1.7 1.4-3.6 2-4.8 2.2-2.2 0.4-5.5 0.3-8.5-2.4-1.9 2.2-4.3 3-5.6 3.2-1.9 0.4-3.6 0.2-5.1-0.1-0.9 0.6-2 1-3.3 1.3-1.2 0.3-4.4 0.7-7.6-1.3-0.6 3.4-2.3 7.7-7.7 9.2-2.2 0.6-4.1 0.4-5.3 0.2h-0.5c-0.7 0.4-1.6 0.8-2.5 1.1-0.8 0.2-1.9 0.4-3.1 0.4-1.4 1.6-3.2 2.4-4.6 2.9-2.3 0.7-4.3 0.6-6 0-1.5 1.9-3.5 2.8-4.7 3.2-1.1 0.4-3.1 0.8-5.3 0.3-0.2 0.1-0.3 0.1-0.4 0.2-0.7 0.2-1.5 0.4-2.4 0.5-1.4 2.1-3.4 3.2-4.9 3.7-1.3 0.5-4.7 1.4-8.4-0.7-0.8 0.1-1.6 0.2-2.3 0.1-0.9 2-2.6 3.9-5.4 5.1-1.2 0.5-4.3 1.4-7.9-0.1-0.9 0.9-1.9 1.7-3.3 2.3-2.2 1-4.2 1-5.5 1-0.7 0.1-1.4 0.2-2.1 0.1-1.2 2.9-3.6 4.4-4.9 5.1-0.5 0.2-0.9 0.4-1.4 0.5-0.8 1-1.9 1.9-3.3 2.6-1 0.5-2 0.8-2.9 0.9-0.6 0.5-1.3 1-2.2 1.4-2 1-3.8 1.3-5.5 1.1-0.3 5-3.5 7.4-5.2 8.3-3.1 1.7-6.2 1.4-8 1.1-1.4 0-3-0.2-4.7-1.1-0.1 4.9-3.2 7.5-4.8 8.5-1.7 1.1-3.4 1.5-5 1.6-0.9 1.2-1.9 1.9-2.5 2.2-1.2 0.8-2.4 1.2-3.5 1.5-0.4 2.3-1.6 4.8-4.4 6.7-0.7 0.5-1.6 1-2.6 1.3-0.6 0.7-1.3 1.3-1.9 1.7-0.9 0.6-1.8 1.1-2.7 1.4-0.5 0.6-1.1 1.2-1.9 1.7-2.5 1.8-5 2.2-7.2 1.9-0.3 2.2-1.4 4.5-3.8 6.3-1.4 1.1-2.8 1.7-3.6 2-1.7 1-4.7 2.1-8.5 0.9-0.7 1-1.4 1.6-1.8 2-0.8 0.7-2.3 1.7-4.4 2.2-0.5 1-1.1 1.7-1.7 2.3-0.2 1.8-1 3.7-2.7 5.4-0.4 0.6-1.2 1.7-2.3 2.7-1.1 1.1-3.5 2.7-6.9 2.7 0 2.1-0.6 4.2-2.3 6.3-0.1 2.9-1.6 5-2.9 6.3-1.6 1.7-4.6 3.7-8.9 2.9 1.2 4.3-0.6 7.5-2.1 9.3-1.3 1.5-4.4 4.1-9.3 3.3-0.5 0.6-1.1 1.1-1.7 1.6 0.4 2.2 0.8 5.9-1.9 9.4-0.3 0.4-0.8 1-1.4 1.5-0.4 1.4-1.1 2.4-1.6 3.1-2 2.6-4.3 3.7-6.7 4-1.3 1.2-3.4 2.7-6.5 2.9 0.1 1.9-0.3 4.1-1.7 6.2-0.7 1-1.5 1.9-2.3 2.5 1.3 3.6 0.2 6.7-0.9 8.5-0.8 1.3-2.2 3-4.3 4 1 2.5 1.5 5.6-0.4 9-0.6 1.1-1.3 1.9-2 2.6-0.2 0.7-0.5 1.3-0.8 2-2 3.8-5.1 5.1-8 5.4 2.1 3.8 1.1 7.3 0.3 9-0.5 1-1 1.9-1.6 2.6 0.3 2.1-0.2 3.9-0.7 5.3-1.2 2.8-2.9 4.4-4.9 5.3 0 0.8 0 1.5-0.1 2.1 0.1 1.1 0 2.9-0.7 4.9-0.4 1-0.8 1.9-1.3 2.6-0.1 0.8-0.2 1.6-0.5 2.5-0.4 1.1-1.6 3.9-4.6 5.6 0.3 1.9-0.1 3.5-0.3 4.3-0.2 0.8-0.5 1.4-0.8 2.1 1 2.4 0.8 4.7 0.4 6.3-0.5 1.8-1.2 3.2-2.2 4.3 1.3 2.6 1.1 5.1 0.8 6.5-0.3 1.3-0.8 2.9-2 4.4 0.3 1.5 0.1 2.8 0 3.5-0.2 1.2-0.8 3.2-2.4 5 0.1 0.9 0.1 1.8 0 2.9-0.3 2.1-1.7 6.8-7.8 8.4 1.5 1.8 2.6 4.2 2.4 7.4 1.2 2.2 1.3 4.4 1.3 5.6-0.1 1.1-0.3 2.1-0.6 2.9 1.1 2 1.3 4.1 1.3 5.3 0 0.7-0.1 1.3-0.2 1.9 0.1 0.3 0.2 0.5 0.2 0.8 0.4 0.8 0.8 1.8 1.1 3.1 0.5 1.1 1.2 2.9 1.2 5.1 0 1.7-0.4 6.7-6.1 9.5 1.1 1 2.1 2.2 2.7 3.9 0.8 1.2 1.8 3.1 2.1 5.7 0.2 1.8-0.1 3.4-0.7 4.7 2.2 2.2 2.8 4.8 2.9 5.9 0 0.4 0.1 0.7 0.1 1 0.7 1.1 1.3 2.5 1.6 4.2 0.2 1.2 0.2 2.7-0.2 4.3 0.6 1 1.1 2.2 1.4 3.7 0.6 3.5-0.6 6.2-1.8 8 0.5 0.9 1 1.9 1.2 3.1 0.9 3.9-0.4 6.8-2.3 8.9 0.6 0.5 1.2 1.2 1.7 1.9 3.1 0.8 6.2 2.6 7.5 7 1.2 4-0.1 7.2-1.8 9.4 2.3 0.9 4.9 2.7 6.2 6.3 0.7 2 0.8 3.8 0.5 5.5 0.6 0.7 1 1.6 1.4 2.6 1.7 4.3 0.2 7.9-0.9 9.9-0.1 0.5-0.3 1-0.5 1.4 1.9 0.9 3.9 2.4 5.2 5.1 0.6 1.2 0.8 2.2 1 2.9v0.1c0.4 0.9 0.7 1.8 0.8 2.7 4.2 0.7 6.2 3.6 7.1 5.2 0.6 1.2 1 2.3 1.1 3.4 1.2 0.8 2.4 1.9 3.3 3.5 0.6 1 1 2 1.2 3 0.5 0.5 1 1.2 1.4 1.9 0.9 1.6 1.4 3.2 1.5 4.6 0.9 0.7 1.7 1.6 2.4 2.7 2 3.2 1.8 6.3 1.2 8.6 0.1 0.1 0.2 0.2 0.2 0.3 0.5 0.8 1.6 2.6 1.7 5.1 1.8 0.6 3.6 1.7 5 3.8 0.1 0.1 0.2 0.3 0.3 0.4 2.6 0.1 5.4 1.1 7.6 4 0.6 0.8 1.4 2.1 1.8 3.8 3.6 0.4 5.8 2.7 6.5 3.6 1.4 1.8 3.1 4.9 1.9 9 0.6 1.3 1.1 2.9 0.9 4.9 1.2 0.5 2.4 1.3 3.4 2.5 0.8 0.9 1.4 1.8 1.8 2.7 4-0.5 6.7 1.4 8.1 2.7l0.1 0.1c0.6 0.4 1.4 1 2.3 2 1.3 1.3 3.7 4.5 2.7 9.1 0.8 0.4 1.5 1 2.3 1.7 1.2 1.1 2 2.3 2.4 3.5 2.3-0.1 4.8 0.5 7.1 2.6 2.2 2 3.1 4.2 3.3 6.3 2.3-0.2 5 0.3 7.5 2.4 1 0.8 1.8 1.8 2.3 2.7 2.4-0.4 5.3-0.2 8.1 2 1.4 1.1 2.3 2.3 2.9 3.6 0.3 0.2 0.6 0.4 0.8 0.6 0.4 0.3 0.8 0.6 1.2 1 0.3 0.3 0.6 0.5 1 0.8 0.7 0.5 2 1.7 2.9 3.5 0.4 0.2 0.7 0.4 0.9 0.6 0.2 0.2 0.4 0.3 0.6 0.5 1.5 0.2 3 0.7 4.5 1.8 2.5 1.8 3.7 4.2 4.2 6.1 1.3 0.2 2.6 0.7 4 1.6 0.9 0.6 2.7 2 3.8 4.6 1.7 0 3.6 0.4 5.6 1.6 1.1 0.7 2 1.4 2.5 1.9l0.1 0.1c1.5 1 2.5 2.2 3.2 3.5 1.9-0.3 4.1 0 6.4 1.3 1 0.6 1.8 1.2 2.5 1.9 2.5-1.2 5.6-1.5 9 0.3 1.2 0.6 2 1.3 2.6 1.7l0.1 0.1c1.5 0.9 2.6 2 3.4 3.1 1.3 0.2 2.5 0.6 3.3 1.1 1 0.5 2.2 1.3 3.2 2.4 2 0 3.6 0.6 4.4 1 0.9 0.4 2.8 1.6 4.2 3.8 0.1 0 0.1 0.1 0.2 0.1 0.4 0.2 0.9 0.4 1.2 0.7 1.3 0 2.7 0.3 4.1 0.9 3.1 1.4 4.6 3.7 5.5 5.8 1.6 0 2.9 0.5 3.8 0.8 0.7 0.3 1.8 0.8 2.8 1.7 1.5-0.2 3.1-0.1 4.9 0.5 1.8-0.5 3.9-0.5 6.3 0.4 4.8 1.8 6.2 5.8 6.7 8.9 1.3-0.1 2.9 0 4.7 0.6 0.7 0.2 1.2 0.5 1.8 0.8 2.4-2.4 5.9-4.3 10.7-2.8 1.2 0.4 4 1.6 5.7 4.7 2-1.2 4.5-1.7 7.6-0.8 4.3 1.2 6.2 4.3 7 7.2 3.2-2.7 6.7-2.5 8.8-2 3.2 0.8 5.2 2.9 6.3 4.2 0.8 0.7 1.6 1.5 2.3 2.6 1.9-1.2 4.3-1.8 7.3-1.2 3.6 0.8 5.7 3 6.9 4.8 2-2.5 5.2-4.8 10-4 2.2 0.4 3.8 1.3 5.1 2.4h0.2c1.6 0.3 6.5 1.6 8.3 7.6 1.6-3.1 4.9-7.8 11.4-7 1.9 0.2 5.6 1.2 7.7 5.4 0.9-0.2 1.9-0.2 2.9-0.1 1.1 0.1 2.1 0.3 2.9 0.7 2.2-1.2 4.3-1.2 5.6-1.1 5.1 0.4 7.6 3.7 8.8 6.9 0.5-0.2 1-0.4 1.5-0.5 2.6-4.6 6.7-5.3 9.2-5.2 1.7 0.1 3.4 0.8 4.4 1.3z m-61.8 1.4z m0 0z m14.7-2.9z m0 0z m101.2 0z m16.8-0.4z m-19.7-0.1z m-210.8-1.4c0.1 0 0.1 0 0 0 0.1 0 0.1 0 0 0z m0 0z m69.9-1.2z m287.1-0.2c-0.1 0-0.1 0 0 0-0.1 0-0.1 0 0 0z m0 0z m-107.5-2.9z m121.6-1.6z m-397.1-1.4z m-0.7-0.3c0.2 0.1 0.4 0.2 0.7 0.3-0.2-0.1-0.4-0.2-0.7-0.3z m87.4-3.7c0.1 0 0.1 0.1 0 0 0.1 0.1 0.1 0 0 0z m333-2.5z m-418.8-2.8z m0 0z m351.5-2.3c-0.9 0.3-1.7 0.7-2.3 1.1 0.9-0.5 1.8-0.9 2.3-1.1z m-369.9 0.2c0.6 0.3 1.1 0.5 1.7 0.6-0.7-0.2-1.3-0.5-1.7-0.6z m49.8-5.9z m-0.1-0.1z m347.2-2.1z m-370.3-8c0.4 0.2 1.1 0.5 1.8 1.1-0.5-0.4-1.1-0.8-1.8-1.1z m0 0z m451.8-3z m0 0z m0.1 0zM295.2 860s0.1 0 0 0c0.1 0 0 0 0 0z m-1.6-2.7z m-76-19.2z m33.6-2z m0 0z m-52.8-7.5z m-10.9-5.8z m0 0z m32.3-5.8s0.1 0.1 0 0c0.1 0.1 0 0 0 0z m-2.6-1.1z m589.4-6.7z m-634.2-1z m0-0.1s0 0.1 0 0c0 0.1 0 0 0 0z m683.3-6.2c0 0.1 0 0.1 0 0 0 0.1 0 0.1 0 0z m-703.9-19.8c0 0.1 0 0.1 0 0 0 0.1 0 0.1 0 0zM842 778z m30.1-1.2l-0.1 0.1c0-0.1 0-0.1 0.1-0.1z m-26.1-9.9s-0.1 0 0 0c-0.1 0 0 0 0 0z m47.6-7.9s-0.1 0.1-0.1 0.2c0-0.1 0-0.2 0.1-0.2z m0-0.1z m-16.7-11z m0 0z m20.1-1.1z m-2.1-4.9c-0.1 0-0.1 0.1 0 0-0.1 0.1-0.1 0 0 0z m2.9-5z m-17.9-0.5z m-765.8-22.5c0 0.1 0 0.1 0.1 0.2 0-0.1 0-0.2-0.1-0.2z m23.1-4.6s0 0.1 0 0c0 0.1 0 0 0 0z m-31.3-3.4c0.1 0.5 0.3 0.9 0.5 1.4-0.1-0.3-0.3-0.8-0.5-1.4z m18.9-6.3s0.1 0 0 0c0.1 0 0 0 0 0z m-17.9-5.4z m24.2-0.3z m-33.4-12.4z m801.5-0.6z m0 0z m32.5-4.6z m-4.2-7.7v0zM97.2 666z m-5.2-4.9z m816-14.8c-0.1 0.6-0.2 1.2-0.2 1.7 0-0.7 0.1-1.3 0.2-1.7zM87.3 625.1c0.1 0.7 0.2 1.3 0.4 1.9-0.3-0.8-0.4-1.5-0.4-1.9z m850.1-0.2c0 0.1 0 0.1 0 0 0 0.1 0 0.1 0 0z m-848.5-6.1z m833.5-6.9z m0-0.1z m19.7-16.8z m-826.8-3.1c0 0.1 0 0.1 0 0 0 0.1 0 0.1 0 0z m800.6-2.7c0 1 0.2 1.8 0.4 2.6-0.4-1-0.4-2-0.4-2.6zM86.2 555.7z m853.1-6.1c0 0.1 0 0.1 0 0 0 0.1 0 0.1 0 0z m-29.1-4z m0-0.1z m25.3-14c0 0.1 0 0.2 0.1 0.3 0-0.1 0-0.2-0.1-0.3z m-5.3-13.9c0.1 0.3 0.1 0.6 0.2 1-0.1-0.3-0.2-0.7-0.2-1z m0.6-3.3v0zM96 508.2l-0.3 1.2c0.1-0.5 0.2-0.9 0.3-1.2z m835.6-0.5z m-0.3-0.9c0.1 0.4 0.3 0.7 0.3 0.9l-0.3-0.9z m-831.9-5.6c-0.2 0.5-0.4 0.9-0.6 1.5 0.1-0.4 0.3-0.9 0.6-1.5z m31.2 0.3z m784.3-23z m-26.1-7z m-749.7-2.2z m-26.4-3.3z m8.6-5.8z m5.3-14z m-2.9-5.2z m741.9-4z m-0.1-0.1c0.1 0 0.1 0.1 0 0 0.1 0.1 0.1 0 0 0z m-4.7 0z m-706.1-0.7s0 0.1 0 0c0 0.1 0 0 0 0z m0 0z m733.1-11c0 0.1 0 0.1 0 0 0 0.1 0 0.1 0 0z m-34.4 0.1z m-715.6-3.9z m36.9-1.8c0 0.1-0.1 0.1-0.1 0.2 0.1-0.1 0.1-0.1 0.1-0.2z m-35.4-0.8z m698.8-16.7z m-667-23.5z m681.7-2s0.1 0 0 0c0.1 0 0.1 0 0 0z m-44.6-3.6z m-573.8-15.1z m574.1-12.2s0.1 0 0 0c0.1 0 0 0 0 0z m-552.1-0.5c-0.1 0-0.1 0.1-0.2 0.1 0.1 0 0.2-0.1 0.2-0.1z m0 0z m-32.6-5.7z m61.7-10.3z m499.5-6.7l0.1 0.1c-0.1 0-0.1-0.1-0.1-0.1z m-3.2-0.3z m-522.2-14.8z m5.9-1.7z m493.9-4.1zM279 299.2z m392.4-7.3zM386 289z m-83.2-2z m313.1-5.3z m-5.4-1.7z m-2.4-2.2z m0 0z m-170.7-2.7z m123.1-1.1z m136.6-1.7z m-220.7-3z m186.4-7.6z m-276.1-4.3z m223-2.9z m-20.9-0.2z m0 0z m3.4-3s0.1 0 0 0c0.1 0 0 0 0 0z m0 0z m-14-5.9h0.3c-0.1 0.1-0.2 0-0.3 0z m-20.9-0.4c0.5 0 1.3 0.2 2.2 0.4-0.6-0.2-1.4-0.3-2.2-0.4z m-76.8 0z m0 0z m23.6-3.6z m-12-2z" p-id="699"></path><path d="M313 532.9a34.6 30.5 0 1 0 69.2 0 34.6 30.5 0 1 0-69.2 0Z" p-id="700"></path><path d="M622.7 532.9a34.6 30.5 0 1 0 69.2 0 34.6 30.5 0 1 0-69.2 0Z" p-id="701"></path><path d="M567.1 547.8c0 0.9-0.8 1.9-0.9 2.9-0.1 0.9-1.1 1.7-1.3 2.7-0.2 0.9 1.2 2.2 0.9 3.1-0.2 0.9-0.1 2-0.4 2.9-0.3 0.9-2.3 1.3-2.6 2.2-0.3 0.9 0.9 2.4 0.6 3.3-0.4 0.9-1.4 1.5-1.8 2.4-0.4 0.9-1.7 1.3-2.2 2.2-0.4 0.9-0.5 1.9-0.9 2.7-0.5 0.8-1.2 1.5-1.7 2.3-0.5 0.8-0.9 1.7-1.4 2.5-0.5 0.8-0.1 2.2-0.6 3-0.5 0.8-1.7 1.1-2.3 1.9-0.6 0.8 0 2.5-0.5 3.2-0.6 0.8-1.3 1.5-1.9 2.2-0.6 0.7-1.4 1.4-2 2.1-0.6 0.7-2.1 0.7-2.8 1.4-0.7 0.7-1 1.7-1.7 2.4s-1.7 1-2.4 1.7-1.2 1.5-2 2.1c-0.7 0.6-1.3 1.4-2.1 2-0.8 0.6-1.9 0.7-2.7 1.2-0.8 0.6-0.8 2.2-1.6 2.8-0.8 0.5-2.4-0.1-3.2 0.4-0.8 0.5-1.9 0.5-2.8 0.9-0.8 0.5-1.1 2.1-1.9 2.5-0.9 0.4-1.8 0.6-2.7 1-0.9 0.4-1.5 1.4-2.5 1.7-0.9 0.3-2.2-0.4-3.1-0.1-0.9 0.3-1.8 0.7-2.7 0.9-0.9 0.2-2-0.1-2.9 0.1-0.9 0.2-1.7 1.7-2.6 1.9-1 0.1-1.9 0.5-2.9 0.5-1 0.1-2-0.5-3-0.5s-1.9-1.4-2.8-1.4c-1-0.1-2 0.7-2.9 0.6-1-0.1-2.1 0.6-3 0.5-0.9-0.2-1.7-1.2-2.7-1.4-0.9-0.2-1.6-1.4-2.5-1.7-0.9-0.3-1.9-0.4-2.8-0.7-0.9-0.3-2.1 0.1-3-0.3-0.9-0.4-1.3-1.8-2.1-2.2-0.9-0.4-2.2 0.2-3.1-0.3-0.8-0.5-1.1-1.9-1.9-2.4-0.8-0.5-2.5 0.3-3.3-0.2-0.8-0.5-1.9-0.8-2.6-1.3-0.8-0.6-1.4-1.5-2.1-2.1-0.8-0.6-0.5-2.4-1.2-3.1-0.7-0.6-2.6 0-3.3-0.7-0.7-0.7-1.8-1-2.5-1.6-0.7-0.7-0.9-1.8-1.6-2.5-0.7-0.7-1-1.7-1.6-2.5-0.6-0.7-1.3-1.5-1.9-2.2-0.6-0.7-2-0.9-2.6-1.6-0.6-0.8 0.7-2.9 0.1-3.7-0.6-0.8-1.1-1.5-1.6-2.3-0.5-0.8-2.7-0.6-3.2-1.4-0.5-0.8-1.4-1.5-1.9-2.3-0.5-0.8-0.5-2-1-2.8-0.5-0.9-1.2-1.6-1.6-2.5-0.4-0.9-0.2-2.1-0.5-3-0.4-0.9-0.3-2-0.7-2.9-0.4-0.9-0.9-1.7-1.2-2.6-0.3-0.9-0.3-1.9-0.5-2.8-0.3-0.9-2-1.5-2.2-2.4-0.2-1 1.4-2.3 1.3-3.2-0.2-1-1.8-1.7-1.9-2.7-0.1-1 1.2-2 1.2-3s0.5-1.8 0.6-2.8c0.1-1-0.2-1.9 0.1-2.8 0.2-1-0.9-2.3-0.6-3.2 0.4-0.9 0.9-1.8 1.4-2.7 0.5-0.9 1.6-1.3 2.2-2.1 0.6-0.8 1-1.7 1.6-2.4 0.7-0.7 2.2-0.5 2.9-1.1 0.7-0.6 0.8-2 1.7-2.5 0.8-0.6 1-2 1.9-2.5 0.8-0.5 1.8-0.9 2.7-1.4 0.8-0.4 2-0.3 2.9-0.7 0.9-0.4 2.3 0.6 3.2 0.2 0.9-0.3 1.1-2.7 2-3 0.9-0.3 2.4 1.3 3.4 1.1 0.9-0.3 1.7-1 2.7-1.2 0.9-0.2 1.5-2.1 2.5-2.3 0.9-0.2 1.9-0.4 2.9-0.6 0.9-0.2 2.3 2 3.3 1.8 1-0.2 1.6-2.6 2.6-2.7 1-0.1 2.1 1.2 3.1 1.1 1-0.1 1.9-0.8 2.8-0.9 1-0.1 2 1.2 3 1.1 1-0.1 1.9-0.8 2.9-0.9 1-0.1 1.9 0.1 2.9 0.1s1.9-1.4 2.9-1.4 1.9-0.6 2.9-0.6h2.9c1 0 1.9 2.4 2.9 2.4s2-1 2.9-0.9c1 0 2-0.6 2.9-0.5 1 0 1.9 1.5 2.8 1.6 1 0.1 2-1.2 3-1.1 1 0.1 1.9 0.7 2.9 0.8 1 0.1 1.8 1.3 2.8 1.4 1 0.1 2.1-0.8 3-0.7 1 0.1 2-0.4 3-0.2s2-0.1 3 0c1 0.2 1.9 0.5 2.9 0.7 1 0.2 2 0.1 3 0.3 1 0.2 1.9 0.6 2.8 0.9 0.9 0.3 1.5 1.9 2.4 2.2 0.9 0.3 2.1 0.1 3 0.4 0.9 0.4 2.2-0.1 3.1 0.3 0.9 0.4 1.6 1.3 2.4 1.8 0.9 0.5 1.4 1.5 2.3 2 0.8 0.5 1.7 1 2.5 1.5 0.8 0.6 0.8 2.1 1.5 2.7 0.7 0.6 2.7 0 3.4 0.7 0.7 0.7 0.7 2 1.3 2.8 0.6 0.8 0.9 1.7 1.4 2.6 0.5 0.8 0.1 2 0.4 2.9 0.3 0.9 0.6 1.7 0.9 2.6 0.2 0.9 2 1.6 2.1 2.6-0.3 0.8-0.2 1.8-0.2 2.8z" fill="#F7931E" p-id="702"></path></svg>